<?xml version="1.0" encoding="UTF-8"?>
<svg version="1.1" xmlns="http://www.w3.org/2000/svg" width="32" height="32">
<path d="M0 0 C0.7830249 0.09635742 1.5660498 0.19271484 2.37280273 0.29199219 C23.60500467 3.08627582 44.6947591 7.21802476 65.49609375 12.265625 C70.98159711 13.58500899 76.50191654 14.61480442 82.0625 15.5625 C82.0625 16.2225 82.0625 16.8825 82.0625 17.5625 C82.60704834 17.67062012 83.15159668 17.77874023 83.71264648 17.89013672 C89.36852583 19.07174564 94.71336899 20.67232574 100.125 22.6875 C101.35283203 23.14274048 101.35283203 23.14274048 102.60546875 23.60717773 C110.10871998 26.45937143 117.24288018 29.8757383 124.32568359 33.64111328 C125.91336592 34.48338389 127.51278817 35.30342827 129.11328125 36.12109375 C135.90957694 39.668241 141.98193757 43.90693109 148.0625 48.5625 C148.89652344 49.17867188 149.73054687 49.79484375 150.58984375 50.4296875 C164.97198143 61.38101509 178.15148112 77.26499211 184.0625 94.5625 C184.0625 95.5525 184.0625 96.5425 184.0625 97.5625 C184.7225 97.5625 185.3825 97.5625 186.0625 97.5625 C186.18431641 96.31726563 186.18431641 96.31726563 186.30859375 95.046875 C187.23162385 90.78084989 188.95354238 87.56409683 191.125 83.8125 C191.73118164 82.75361572 191.73118164 82.75361572 192.34960938 81.67333984 C195.75749265 75.84553945 199.60454692 70.63624038 204.0625 65.5625 C204.72507812 64.75683594 205.38765625 63.95117188 206.0703125 63.12109375 C239.47203243 23.74157524 298.73379943 11.44381593 347.0625 3.5625 C348.29726074 3.35818359 349.53202148 3.15386719 350.80419922 2.94335938 C354.47134222 2.34242295 358.14095245 1.76085739 361.8125 1.1875 C362.92471924 1.00751465 364.03693848 0.8275293 365.18286133 0.64208984 C372.3983446 -0.44375415 378.67042036 -1.26400442 385.3125 2.3125 C391.58457993 7.44420176 393.03746165 11.73165777 394.0625 19.5625 C394.34116465 24.66318077 394.33746345 29.75838719 394.32319641 34.86500549 C394.32622092 36.40577423 394.3301119 37.94654146 394.33478898 39.48730606 C394.34503874 43.70015019 394.34289492 47.91290892 394.33860838 52.12575996 C394.33613573 56.6772737 394.34516189 61.22876718 394.35264587 65.78027344 C394.36537885 74.68808727 394.3671884 83.59587094 394.36484561 92.50369234 C394.36306112 99.7440364 394.36481491 106.98437131 394.36907005 114.22471428 C394.36966524 115.25597062 394.37026043 116.28722695 394.37087366 117.34973348 C394.37208543 119.44482756 394.37329956 121.53992164 394.37451603 123.63501572 C394.38538568 143.27045367 394.3832315 162.90587443 394.37713119 182.54131334 C394.3719597 200.5018629 394.38322462 218.46235827 394.40222941 236.42289711 C394.42160234 254.87297475 394.42986494 273.32302674 394.42610615 291.77311462 C394.42419365 302.1282622 394.42668673 312.48336361 394.44082069 322.83850288 C394.45272833 331.65151035 394.45414611 340.46444322 394.44203053 349.2774517 C394.4361382 353.77275117 394.43505232 358.26791416 394.44703293 362.76320457 C394.45787875 366.88055498 394.45480392 370.99765471 394.44077124 375.11499333 C394.43812079 376.60205858 394.44050181 378.0891434 394.44850711 379.57618947 C394.53699022 397.24286351 394.53699022 397.24286351 388.75 404.4375 C383.35662861 408.70202621 378.19480335 410.15534354 371.5625 411.17578125 C370.7427066 411.31041275 369.92291321 411.44504425 369.07827759 411.58375549 C367.32115634 411.87184321 365.56336699 412.15588029 363.80499268 412.43621826 C359.14460064 413.18185195 354.49063143 413.96581051 349.8359375 414.74609375 C348.90639252 414.90128479 347.97684753 415.05647583 347.01913452 415.21636963 C296.9448282 423.6064368 235.71687008 434.41191961 196.33203125 468.71484375 C191.82195805 472.38655566 188.37072447 473.08445678 182.625 472.92578125 C177.21659221 472.15904051 173.55789006 468.7134583 169.33203125 465.4609375 C144.78100885 446.92549737 115.39274977 436.77435825 86.0625 428.5625 C85.19979492 428.31967285 84.33708984 428.0768457 83.44824219 427.82666016 C55.57416145 420.12253001 26.32185321 413.8623323 -2.47753906 411.05419922 C-10.32006621 410.15801844 -15.9597567 407.65332556 -21.51059312 401.94468582 C-23.47754005 398.66091646 -23.50224699 395.53717803 -23.61664295 391.80812263 C-23.64974166 391.05454908 -23.68284036 390.30097553 -23.71694206 389.52456642 C-24.02562577 381.89642183 -24.08031842 374.26608145 -24.07121277 366.63253784 C-24.0730873 365.10905245 -24.07539052 363.58556754 -24.07807809 362.06208336 C-24.08412208 357.9296234 -24.08407141 353.79718389 -24.08288372 349.66472054 C-24.08267784 345.18767621 -24.08821572 340.71063814 -24.09294128 336.2335968 C-24.10120479 327.48717478 -24.10399406 318.74075951 -24.10455366 309.99433391 C-24.10503034 302.88667497 -24.10709261 295.77901825 -24.11025429 288.67136002 C-24.11904474 268.49838414 -24.12367553 248.32541357 -24.12292381 228.15243576 C-24.12288386 227.06765931 -24.1228439 225.98288285 -24.12280273 224.86523438 C-24.12276185 223.77912845 -24.12272097 222.69302253 -24.12267885 221.57400431 C-24.12227158 203.93588746 -24.13186563 186.29779188 -24.1459411 168.65968119 C-24.16029598 150.52805871 -24.16721195 132.39644662 -24.16634732 114.26481831 C-24.16601532 104.09317125 -24.16876467 93.92154656 -24.17952538 83.74990463 C-24.18861808 75.10025045 -24.19081532 66.4506288 -24.18401595 57.80097191 C-24.18074614 53.38893322 -24.18071102 48.97695702 -24.1893692 44.56492424 C-24.19721332 40.52634151 -24.19582427 36.48787105 -24.18708507 32.44929112 C-24.18554562 30.98871484 -24.18738296 29.52813026 -24.19294515 28.06756376 C-24.20000936 26.08102837 -24.19351586 24.09445868 -24.18638897 22.10792351 C-24.18660634 21.0049379 -24.18682371 19.90195228 -24.18704766 18.76554286 C-23.74473614 13.0882996 -22.43806658 8.13646353 -18.5390625 3.84057617 C-13.2579243 -0.37386872 -6.45910955 -0.90116735 0 0 Z M70.0625 82.5625 C68.8945824 84.89833521 68.93719632 86.25123968 68.93665886 88.85336876 C68.93405111 89.75969972 68.93144336 90.66603068 68.92875659 91.59982622 C68.93098732 92.60211153 68.93321804 93.60439685 68.93551636 94.63705444 C68.93395637 95.69706527 68.93239638 96.7570761 68.93078911 97.84920847 C68.92677866 101.42601612 68.9299692 105.00278183 68.93310547 108.57958984 C68.93175124 111.13540675 68.92997118 113.69122346 68.92779541 116.24703979 C68.92369435 122.48994188 68.92431594 128.73282828 68.92720805 134.97573058 C68.92946679 140.06316328 68.92977254 145.15059261 68.92868423 150.23802567 C68.928531 150.96236581 68.92837777 151.68670596 68.92821989 152.4329958 C68.92790014 153.90484026 68.92757593 155.37668472 68.9272473 156.84852917 C68.92439077 170.67737855 68.92767951 184.50622132 68.93304767 198.33506961 C68.93749135 210.14574637 68.93676039 221.95641327 68.93212891 233.76708984 C68.92674362 247.50628243 68.92469124 261.24546916 68.92774117 274.98466265 C68.92805967 276.45902991 68.92837404 277.93339717 68.92868423 279.40776443 C68.92883851 280.13295963 68.92899279 280.85815482 68.92915174 281.60532563 C68.93000695 286.66070697 68.92857521 291.71608454 68.92620468 296.7714653 C68.92306015 303.62834716 68.92538806 310.4852105 68.93109894 317.34209061 C68.93240254 319.83624491 68.93207426 322.3304008 68.92983627 324.82455444 C68.91579253 342.09278134 69.3375661 359.30989017 70.0625 376.5625 C70.62812527 376.72960008 71.19375053 376.89670015 71.77651596 377.06886387 C72.51894672 377.2882056 73.26137749 377.50754732 74.02630615 377.73353577 C74.76208767 377.95090928 75.49786919 378.16828279 76.25594711 378.39224339 C77.80127824 378.84892272 79.34647355 379.30606165 80.89160156 379.76342773 C81.5719043 379.96395752 82.25220703 380.1644873 82.953125 380.37109375 C83.99001465 380.67744751 83.99001465 380.67744751 85.04785156 380.98999023 C86.33007527 381.35436428 87.62035159 381.69222269 88.91870117 381.99414062 C91.83969855 382.76854922 94.63424457 383.81123131 97.47265625 384.84765625 C99.32793945 385.51958008 99.32793945 385.51958008 101.22070312 386.20507812 C103.178872 386.91640088 105.13647115 387.62919655 107.09301758 388.3449707 C108.98886049 389.03758658 110.88697995 389.72396106 112.78515625 390.41015625 C113.91703369 390.82273682 115.04891113 391.23531738 116.21508789 391.66040039 C119.04133515 392.71350961 119.04133515 392.71350961 122.0625 392.5625 C122.10831609 358.11557446 122.14353882 323.66865589 122.16463066 289.22170644 C122.16713196 285.15138497 122.16972061 281.08106356 122.17236328 277.01074219 C122.17315021 275.79529295 122.17315021 275.79529295 122.17395304 274.55528918 C122.18264655 261.44927096 122.1984107 248.34327036 122.21680559 235.23726258 C122.235534 221.78101806 122.24662294 208.32478275 122.25067699 194.86852574 C122.25341595 186.57084135 122.26205479 178.27320675 122.27833293 169.97553769 C122.28893614 164.27913074 122.2920931 158.5827494 122.28950275 152.88633332 C122.28822664 149.60387608 122.29123671 146.32152344 122.30091095 143.03907776 C122.31091197 139.46989217 122.30845 135.90091688 122.30300903 132.33172607 C122.30883472 131.30834224 122.3146604 130.2849584 122.32066262 129.23056293 C122.28277195 119.98767194 121.82298326 110.38416799 116.9375 102.3125 C116.39867187 101.39984375 115.85984375 100.4871875 115.3046875 99.546875 C114.89476562 98.89203125 114.48484375 98.2371875 114.0625 97.5625 C113.4025 97.5625 112.7425 97.5625 112.0625 97.5625 C111.5675 96.0775 111.5675 96.0775 111.0625 94.5625 C105.13602138 88.89303703 96.34078404 83.74886836 87.95703125 83.5 C87.26996094 83.520625 86.58289063 83.54125 85.875 83.5625 C84.616875 83.5625 83.35875 83.5625 82.0625 83.5625 C81.7325 83.2325 81.4025 82.9025 81.0625 82.5625 C79.20962498 82.49023498 77.35416122 82.4786878 75.5 82.5 C74.48808594 82.50902344 73.47617187 82.51804687 72.43359375 82.52734375 C71.65113281 82.53894531 70.86867188 82.55054688 70.0625 82.5625 Z " fill="#003C8D" transform="translate(326.9375,291.4375)" />
<path d="M0 0 C0.07013216 17.35051371 0.12300875 34.70098308 0.15543652 52.05160618 C0.17089459 60.10810146 0.1919638 68.16450858 0.22631836 76.22094727 C0.25625322 83.24428697 0.27558271 90.26756281 0.28226548 97.29096454 C0.28617084 101.00860211 0.29532672 104.72605701 0.31719017 108.44363594 C0.34141965 112.59735282 0.34196737 116.75075366 0.34057617 120.90454102 C0.351362 122.13237305 0.36214783 123.36020508 0.3732605 124.62524414 C0.34325651 132.89832127 -0.72014594 138.46548584 -5.875 145.125 C-6.34679687 145.74632812 -6.81859375 146.36765625 -7.3046875 147.0078125 C-11.04135564 151.39882806 -15.31947274 155.23525679 -19.59399414 159.09130859 C-25.24319849 164.2309831 -30.65540587 169.57186978 -36.00533867 175.02186966 C-37.54555351 176.5893994 -39.09067112 178.15194885 -40.63722229 179.71322632 C-45.02367196 184.14181899 -49.40662426 188.57375011 -53.77416992 193.02099609 C-56.47020556 195.76552385 -59.17588986 198.50020887 -61.88813972 201.22871017 C-62.9120558 202.26249689 -63.93231214 203.29992227 -64.94872856 204.34108353 C-66.36204023 205.78812249 -67.78901356 207.22178007 -69.21655273 208.65478516 C-70.02197006 209.47210114 -70.82738739 210.28941711 -71.6572113 211.13150024 C-74.22468056 213.17919481 -75.74048868 213.81229434 -79 214 C-84.44738809 211.18570393 -88.43364681 206.77894381 -92.671875 202.41796875 C-94.15612468 200.91328783 -95.6405038 199.40873458 -97.125 197.90429688 C-99.43561165 195.55036126 -101.74366264 193.1939861 -104.04882812 190.8347168 C-115.57228433 178.76893596 -115.57228433 178.76893596 -129 169 C-130.43472656 168.12021484 -130.43472656 168.12021484 -131.8984375 167.22265625 C-141.90837288 162.53345939 -154.12444743 161.94240576 -164.70703125 165.109375 C-174.54906114 169.71470219 -180.29943488 175.86366945 -184 186 C-184.66 186 -185.32 186 -186 186 C-186.12679156 178.40130429 -186.21434844 170.80288142 -186.2746582 163.20336914 C-186.29980001 160.6183045 -186.33391815 158.03331093 -186.37719727 155.44848633 C-186.43785922 151.73240626 -186.46621419 148.01726614 -186.48828125 144.30078125 C-186.52699089 142.56771477 -186.52699089 142.56771477 -186.56648254 140.79963684 C-186.56929775 132.74330734 -186.56929775 132.74330734 -183.58300781 128.84423828 C-182.73061523 128.23563965 -181.87822266 127.62704102 -181 127 C-180.40058594 126.40316406 -179.80117188 125.80632812 -179.18359375 125.19140625 C-164.59768974 111.58442197 -146.11513296 109.36901244 -127.04931641 109.91552734 C-109.18329913 110.65196313 -90.37299535 116.71130157 -77 129 C-69.20992388 126.28738421 -62.43172936 120.13259767 -57 114 C-55.97111208 110.91333624 -55.86356838 108.76122886 -55.84228516 105.52563477 C-55.83202301 104.40339005 -55.82176086 103.28114532 -55.81118774 102.12489319 C-55.80388641 100.9093425 -55.79658508 99.69379181 -55.7890625 98.44140625 C-55.76097387 95.86262408 -55.7323093 93.28384813 -55.703125 90.70507812 C-55.66088716 86.64367098 -55.62409977 82.58230035 -55.59863281 78.52075195 C-55.57082878 74.59822558 -55.52493505 70.67622602 -55.4765625 66.75390625 C-55.47330963 65.55657364 -55.47005676 64.35924103 -55.46670532 63.12562561 C-55.21126422 45.38411525 -49.4910477 32.51254692 -37 20 C-36.38511719 19.37351562 -35.77023437 18.74703125 -35.13671875 18.1015625 C-27.10740537 10.50208389 -11.29976267 0 0 0 Z " fill="#31C27F" transform="translate(634,374)" />
<path d="M0 0 C0 36.3 0 72.6 0 110 C-12.21 113.96 -24.42 117.92 -37 122 C-40.96 123.65 -44.92 125.3 -49 127 C-49.99 127 -50.98 127 -52 127 C-52.25582731 116.89025957 -52.45079551 106.78129916 -52.56993389 96.66897106 C-52.62714195 91.97223604 -52.70461233 87.27772842 -52.82983398 82.58227539 C-52.95011301 78.04330697 -53.01527769 73.5064682 -53.04364967 68.96602821 C-53.06384335 67.24151406 -53.10328111 65.5171056 -53.16303062 63.79350853 C-53.65849979 48.89658556 -53.65849979 48.89658556 -48.19070911 43.00002766 C-45.90955182 40.83954581 -43.49637429 38.90512087 -41 37 C-39.61808576 35.79958029 -38.2413335 34.59312446 -36.875 33.375 C-36.24335937 32.83617187 -35.61171875 32.29734375 -34.9609375 31.7421875 C-32.71368115 29.7456211 -30.61105073 27.63987054 -28.5 25.5 C-25.26647575 22.22811191 -21.95072182 19.16036795 -18.45703125 16.171875 C-14.21670054 12.42366534 -10.12279456 8.51493989 -6.01513672 4.62231445 C-5.06598389 3.72838989 -5.06598389 3.72838989 -4.09765625 2.81640625 C-3.52539307 2.27443604 -2.95312988 1.73246582 -2.36352539 1.17407227 C-1 0 -1 0 0 0 Z " fill="#32C57F" transform="translate(632,557)" />
<path d="M0 0 C0.66 0.33 1.32 0.66 2 1 C1.6757435 1.71394015 1.35148701 2.42788031 1.01740456 3.16345501 C-0.04162552 6.11605281 -0.25979726 8.26277501 -0.2784729 11.38471985 C-0.28963638 12.45177658 -0.30079987 13.51883331 -0.31230164 14.6182251 C-0.31446182 15.77844177 -0.31662201 16.93865845 -0.31884766 18.1340332 C-0.32889328 19.36371323 -0.3389389 20.59339325 -0.34928894 21.8603363 C-0.37485144 25.22360608 -0.39172441 28.58670774 -0.40471697 31.95003533 C-0.42036785 35.46813758 -0.44715181 38.98615476 -0.4727478 42.50419617 C-0.51950099 49.16219946 -0.5562618 55.82021882 -0.58942068 62.47830218 C-0.62766655 70.05994679 -0.67707024 77.64150589 -0.72740483 85.22307837 C-0.8306732 100.81532374 -0.91995011 116.40761709 -1 132 C-1.33 132 -1.66 132 -2 132 C-7.27360951 110.78664993 -4.18765675 85.25145599 -4.18530273 63.49291992 C-4.18519995 58.51395053 -4.19901312 53.53512002 -4.21607494 48.55618382 C-4.22721707 44.6758307 -4.2292215 40.79551144 -4.22869301 36.91514397 C-4.22986355 35.07849574 -4.23423255 33.24184637 -4.24202538 31.40521431 C-4.32739419 9.27298754 -4.32739419 9.27298754 0 0 Z " fill="#04317E" transform="translate(452,553)" />
<path d="M0 0 C0.99 0 1.98 0 3 0 C3.07013216 17.35051371 3.12300875 34.70098308 3.15543652 52.05160618 C3.17089459 60.10810146 3.1919638 68.16450858 3.22631836 76.22094727 C3.25625322 83.24428697 3.27558271 90.26756281 3.28226548 97.29096454 C3.28617084 101.00860211 3.29532672 104.72605701 3.31719017 108.44363594 C3.34141965 112.59735282 3.34196737 116.75075366 3.34057617 120.90454102 C3.35675491 122.74628906 3.35675491 122.74628906 3.3732605 124.62524414 C3.34351528 132.82696978 2.54491234 138.6955399 -3.1875 144.9375 C-3.71730469 145.52402344 -4.24710938 146.11054687 -4.79296875 146.71484375 C-5.39044922 147.35099609 -5.39044922 147.35099609 -6 148 C-6 143.72159739 -3.71595568 142.17965543 -1 139 C0.02713223 135.91860331 0.1370692 133.78186119 0.15821838 130.55207825 C0.1680072 129.42045761 0.17779602 128.28883698 0.18788147 127.1229248 C0.19363693 125.88071167 0.1993924 124.63849854 0.20532227 123.35864258 C0.21522186 122.05122604 0.22512146 120.74380951 0.23532104 119.39677429 C0.26236653 115.81030904 0.28337801 112.22383063 0.30332303 108.6373198 C0.32518478 104.88967378 0.35257255 101.14206828 0.37937927 97.39445496 C0.4293036 90.29721719 0.4742434 83.19995692 0.51740164 76.10267514 C0.56677623 68.02292605 0.62169354 59.94321763 0.67708123 51.86350787 C0.79089729 35.24237606 0.89773715 18.62120698 1 2 C0.34 1.67 -0.32 1.34 -1 1 C-0.67 0.67 -0.34 0.34 0 0 Z " fill="#38D87C" transform="translate(631,374)" />
<path d="M0 0 C9.73611574 1.63403341 16.7973422 7.55182858 23 15 C26.96032831 21.15305246 29.19770814 27.855792 29.4140625 35.17578125 C29.45281494 36.4484082 29.49156738 37.72103516 29.53149414 39.03222656 C29.56339554 40.45896818 29.59453573 41.88572697 29.625 43.3125 C29.64368134 44.04513062 29.66236267 44.77776123 29.68161011 45.53259277 C30.39155846 73.67371353 30.08511247 101.85228426 30 130 C29.34 130.33 28.68 130.66 28 131 C26.71374887 127.14124661 26.88524263 123.51538314 26.91821289 119.49633789 C26.92127945 118.6276004 26.92434601 117.75886292 26.92750549 116.86380005 C26.93466399 114.97477871 26.94405578 113.08576483 26.95540047 111.19676399 C26.97279825 108.19818249 26.98309418 105.19965441 26.99131775 102.20103455 C27.01575158 93.67392918 27.05108355 85.14689503 27.09594727 76.61987305 C27.12289292 71.40334488 27.13983233 66.18685896 27.15081596 60.97027397 C27.1569859 58.9901315 27.16694042 57.00999679 27.18089485 55.02989388 C27.73792194 35.58094535 27.73792194 35.58094535 21.0234375 17.7421875 C20 16 20 16 20 14 C19.34 14 18.68 14 18 14 C16.84891829 12.81506294 15.69888282 11.62908802 14.5546875 10.4375 C10.42561358 6.61966281 5.29829304 3.82128823 0 2 C0 1.34 0 0.68 0 0 Z " fill="#05337B" transform="translate(421,375)" />
<path d="M0 0 C0.66 0 1.32 0 2 0 C2.10619772 25.68677839 2.17329225 51.33423198 1 77 C0.67 77 0.34 77 0 77 C-0.17291467 74.04192398 -0.33829877 71.08369551 -0.5 68.125 C-0.54769531 67.32191406 -0.59539062 66.51882813 -0.64453125 65.69140625 C-1.48645684 49.93537025 -0.94026445 34.13587635 -0.5 18.375 C-0.45160277 16.57813092 -0.40342472 14.78125591 -0.35546875 12.984375 C-0.23949168 8.65617799 -0.12059838 4.3280706 0 0 Z " fill="#083175" transform="translate(395,592)" />
<path d="M0 0 C5.41808351 1.58790853 10.21670129 4.0011122 15.1875 6.625 C16.03103027 7.0694043 16.87456055 7.51380859 17.74365234 7.97167969 C25.16367901 11.95468728 31.70676861 16.60028377 38.30859375 21.828125 C43.10871765 25.38870218 46.66241754 26.83332525 52.69921875 26.4765625 C56.20187111 25.75105556 58.22409503 24.22072397 61 22 C61.66 22 62.32 22 63 22 C61.82001782 25.53994655 60.39887119 26.48097589 57.15625 28.1953125 C52.53812906 29.91874169 47.68006235 30.08181016 43.07421875 28.22265625 C39.93888534 26.33608519 37.10589542 24.08078772 34.19921875 21.86328125 C23.51702477 13.86729155 11.91906107 7.94874823 0 2 C0 1.34 0 0.68 0 0 Z " fill="#063074" transform="translate(462,735)" />
<path d="M0 0 C0.66 0.33 1.32 0.66 2 1 C-1.44535023 4.49485127 -4.98173646 7.83796547 -8.62402344 11.13012695 C-14.58935375 16.56140304 -20.3268245 22.19733606 -26.015625 27.91796875 C-27.00716314 28.91137999 -27.99892824 29.90456474 -28.99090576 30.89753723 C-31.55760552 33.46799218 -34.12128429 36.04143825 -36.68426514 38.61560059 C-39.31757814 41.25928136 -41.95384841 43.90000986 -44.58984375 46.54101562 C-49.72940057 51.69118572 -54.86575776 56.84453115 -60 62 C-60.66 61.67 -61.32 61.34 -62 61 C-54.80510444 53.78189035 -47.60747765 46.56651641 -40.40639305 39.35458088 C-37.06239795 36.00537676 -33.71933553 32.65525279 -30.37841797 29.30297852 C-27.15164003 26.06530116 -23.92239499 22.83010323 -20.69145584 19.5965786 C-19.46186556 18.36514676 -18.23315284 17.132838 -17.00535202 15.89962196 C-15.27983934 14.16680517 -13.55117615 12.43718915 -11.82177734 10.70825195 C-11.31970764 10.20258698 -10.81763794 9.696922 -10.300354 9.17593384 C-7.01554243 5.90054056 -3.59480615 2.92265011 0 0 Z " fill="#00178C" transform="translate(622,525)" />
<path d="M0 0 C13.5 0 13.5 0 19 1 C19 1.33 19 1.66 19 2 C12.565 2.495 12.565 2.495 6 3 C6 3.33 6 3.66 6 4 C4.35 4 2.7 4 1 4 C1.03029297 4.9701001 1.06058594 5.9402002 1.09179688 6.93969727 C2.09694464 39.4544823 2.09694464 39.4544823 2.125 53.0625 C2.12951172 53.92625244 2.13402344 54.79000488 2.13867188 55.67993164 C2.12414814 61.82770938 1.63704614 67.88711422 1 74 C0.67 74 0.34 74 0 74 C0 49.58 0 25.16 0 0 Z " fill="#042569" transform="translate(395,372)" />
<path d="M0 0 C6.33051014 0.5469259 12.01068374 1.6599327 18.0625 3.5625 C18.9073999 3.82281006 19.7522998 4.08312012 20.62280273 4.35131836 C23.41962753 5.22080415 26.21039617 6.10762673 29 7 C30.01835937 7.32484375 31.03671875 7.6496875 32.0859375 7.984375 C35.24845734 8.99950482 38.40627037 10.02798953 41.5625 11.0625 C43.02345093 11.53635132 43.02345093 11.53635132 44.51391602 12.01977539 C51.2278748 14.25280318 57.61418834 16.95606273 64 20 C60.70871016 21.11265281 59.01029666 20.91674877 55.82421875 19.59375 C54.59952881 19.10116699 54.59952881 19.10116699 53.35009766 18.59863281 C52.47144043 18.23608398 51.5927832 17.87353516 50.6875 17.5 C35.35573943 11.41456132 19.59426479 6.71575002 3.5703125 2.82421875 C2.72210938 2.55222656 1.87390625 2.28023437 1 2 C0.67 1.34 0.34 0.68 0 0 Z " fill="#052F76" transform="translate(397,714)" />
<path d="M0 0 C4.84192524 0.5888828 8.46888048 2.67374388 12.625 5.0625 C13.32995605 5.4637207 14.03491211 5.86494141 14.76123047 6.27832031 C23.08163697 11.09290563 30.73282245 16.71487347 38 23 C37.67 23.66 37.34 24.32 37 25 C36.22398437 24.3709375 35.44796875 23.741875 34.6484375 23.09375 C26.80446786 16.84018911 18.7905752 11.82397017 10 7 C8.03506359 5.86552728 6.07590492 4.72093578 4.125 3.5625 C3.32320313 3.08941406 2.52140625 2.61632812 1.6953125 2.12890625 C1.13585937 1.75636719 0.57640625 1.38382812 0 1 C0 0.67 0 0.34 0 0 Z " fill="#043179" transform="translate(443,322)" />
<path d="M0 0 C-4.62568344 3.08378896 -9.78402342 3.56585701 -15.1875 4.625 C-16.29931641 4.85445312 -17.41113281 5.08390625 -18.55664062 5.3203125 C-24.48323432 6.49931515 -29.95822334 7.28032663 -36 7 C-32.85923121 4.90615414 -30.92701935 4.41902112 -27.265625 3.7109375 C-26.13382813 3.49179687 -25.00203125 3.27265625 -23.8359375 3.046875 C-22.65257812 2.82515625 -21.46921875 2.6034375 -20.25 2.375 C-19.08210937 2.14554688 -17.91421875 1.91609375 -16.7109375 1.6796875 C-11.06434137 0.60414538 -5.75149413 -0.31952745 0 0 Z " fill="#072D70" transform="translate(679,704)" />
<path d="M0 0 C-6.41292413 2.16395981 -12.84525087 4.25411487 -19.3125 6.25 C-20.19228516 6.53101563 -21.07207031 6.81203125 -21.97851562 7.1015625 C-22.82736328 7.36195313 -23.67621094 7.62234375 -24.55078125 7.890625 C-25.31044189 8.12813477 -26.07010254 8.36564453 -26.8527832 8.61035156 C-29.23446051 9.04254678 -30.72175421 8.75327792 -33 8 C-27.09337698 5.26499464 -21.08469328 3.4624875 -14.8125 1.75 C-13.33620117 1.32847656 -13.33620117 1.32847656 -11.83007812 0.8984375 C-10.88197266 0.63804687 -9.93386719 0.37765625 -8.95703125 0.109375 C-8.10085205 -0.12813477 -7.24467285 -0.36564453 -6.36254883 -0.61035156 C-3.87893303 -1.01996723 -2.36410408 -0.79634418 0 0 Z " fill="#052D74" transform="translate(617,718)" />
<path d="M0 0 C0.2475 0.556875 0.495 1.11375 0.75 1.6875 C3.32629612 6.45364783 6.13547716 9.59999669 11 12 C14.07681838 12.76390717 17.17664552 13.23457074 20.3125 13.6875 C21.14845703 13.81705078 21.98441406 13.94660156 22.84570312 14.08007812 C24.89567127 14.39635892 26.94765901 14.69950147 29 15 C29 15.33 29 15.66 29 16 C18.51554035 16.31453379 10.2124015 16.15063983 2 9 C0 7 0 7 -1 5 C-0.6875 2.25 -0.6875 2.25 0 0 Z " fill="#072E70" transform="translate(305,686)" />
<path d="M0 0 C4.12838915 1.37612972 5.27721513 4.1691996 7.375 7.75 C7.77130615 8.41652588 8.1676123 9.08305176 8.57592773 9.76977539 C12.14186612 15.9308475 14.73363978 22.24647431 17 29 C16.01 28.67 15.02 28.34 14 28 C12.67578125 25.26171875 12.67578125 25.26171875 11.3125 21.6875 C8.76278949 15.26760431 5.56272421 9.96426538 1.5390625 4.328125 C0 2 0 2 0 0 Z " fill="#04327A" transform="translate(496,363)" />
<path d="M0 0 C0.66 0.33 1.32 0.66 2 1 C1.29875 1.67804688 0.5975 2.35609375 -0.125 3.0546875 C-6.24062302 9.03198223 -11.82671045 15.16651438 -17 22 C-17.33 21.01 -17.66 20.02 -18 19 C-16.22228627 16.55976564 -14.43998027 14.36759141 -12.4375 12.125 C-11.91091797 11.51269531 -11.38433594 10.90039062 -10.84179688 10.26953125 C-7.49108701 6.43897677 -3.99085148 3.1566735 0 0 Z " fill="#062F76" transform="translate(543,345)" />
<path d="M0 0 C5.41515758 0.5796905 10.05766004 1.91128603 15.125 3.875 C15.81464844 4.13152344 16.50429688 4.38804687 17.21484375 4.65234375 C21.06153031 6.11599695 24.53150521 7.74615319 28 10 C23.67501875 11.44166042 20.78747526 9.49311039 16.8125 7.75 C15.34038198 7.11853543 13.86772695 6.48832126 12.39453125 5.859375 C11.67217285 5.54935547 10.94981445 5.23933594 10.20556641 4.91992188 C6.83833241 3.51547892 3.42485769 2.25668617 0 1 C0 0.67 0 0.34 0 0 Z " fill="#05337B" transform="translate(414,311)" />
<path d="M0 0 C0.33 0 0.66 0 1 0 C2.78101897 6.83658857 3.25249204 13.01611283 3.125 20.0625 C3.11597656 21.02349609 3.10695313 21.98449219 3.09765625 22.97460938 C3.07435208 25.31667805 3.04164058 27.65819792 3 30 C2.67 30 2.34 30 2 30 C1.67 27.03 1.34 24.06 1 21 C0.67 21 0.34 21 0 21 C0 14.07 0 7.14 0 0 Z " fill="#0C498D" transform="translate(394,474)" />
<path d="M0 0 C0 0.33 0 0.66 0 1 C-0.72445313 1.08636719 -1.44890625 1.17273438 -2.1953125 1.26171875 C-10.07235251 2.40651523 -13.81463305 4.07138077 -18.875 10.3125 C-19.431875 11.1478125 -19.431875 11.1478125 -20 12 C-19.49216139 7.55641217 -18.25203984 5.08943785 -15 2 C-9.90578786 -0.51805163 -5.59215333 -1.57727402 0 0 Z " fill="#083273" transform="translate(325,292)" />
<path d="M0 0 C-2.64738916 1.4606285 -3.89448334 2 -7 2 C-7 2.66 -7 3.32 -7 4 C-12 6 -17 8 -22 10 C-21 7 -21 7 -19.3894043 5.90917969 C-17.16062344 4.84366488 -14.93174048 3.78268255 -12.6875 2.75 C-11.52831055 2.18539063 -11.52831055 2.18539063 -10.34570312 1.609375 C-9.59611328 1.25875 -8.84652344 0.908125 -8.07421875 0.546875 C-7.04687622 0.06492676 -7.04687622 0.06492676 -5.9987793 -0.42675781 C-3.62831055 -1.1065991 -2.30439949 -0.78779583 0 0 Z " fill="#05337A" transform="translate(591,319)" />
<path d="M0 0 C6.43311296 -0.09507063 12.65758005 -0.15316726 19 1 C19 1.33 19 1.66 19 2 C12.565 2.495 12.565 2.495 6 3 C6 3.33 6 3.66 6 4 C4.02 4 2.04 4 0 4 C0 2.68 0 1.36 0 0 Z " fill="#022F79" transform="translate(395,372)" />
<path d="M0 0 C6.14154225 0.58490879 12.00679849 1.54066252 18 3 C18 3.33 18 3.66 18 4 C11.71739294 4.23268915 6.11980533 3.40454548 0 2 C0 1.34 0 0.68 0 0 Z " fill="#053077" transform="translate(365,707)" />
<path d="M0 0 C0.66 0.33 1.32 0.66 2 1 C-1.75 4 -1.75 4 -4 4 C-4.33 4.99 -4.66 5.98 -5 7 C-6.64333504 8.03789581 -8.31243867 9.03567924 -10 10 C-11.75149165 11.58245275 -11.75149165 11.58245275 -13 13 C-13.66 12.67 -14.32 12.34 -15 12 C-13.44233138 10.55726615 -11.87864043 9.12103292 -10.3125 7.6875 C-9.44238281 6.88699219 -8.57226562 6.08648437 -7.67578125 5.26171875 C-5.19940565 3.16854871 -2.89996432 1.447512 0 0 Z " fill="#40E77A" transform="translate(610,384)" />
<path d="M0 0 C0 0.33 0 0.66 0 1 C-6.11980533 2.40454548 -11.71739294 3.23268915 -18 3 C-12.49252534 -0.67164977 -6.43961459 -1.65118323 0 0 Z " fill="#06367C" transform="translate(661,708)" />
<path d="M0 0 C6.20988129 0.44356295 10.60540561 1.91532502 16 5 C15.67 5.66 15.34 6.32 15 7 C7.575 4.03 7.575 4.03 0 1 C0 0.67 0 0.34 0 0 Z " fill="#032D76" transform="translate(433,680)" />
<path d="M0 0 C0 0.66 0 1.32 0 2 C-1.97440927 3.4631783 -3.93238871 4.80713064 -6 6.125 C-6.57234375 6.49753906 -7.1446875 6.87007812 -7.734375 7.25390625 C-9.15221782 8.17550408 -10.57560725 9.08855821 -12 10 C-12.66 9.67 -13.32 9.34 -14 9 C-12.56351736 7.87370125 -11.12577415 6.7490101 -9.6875 5.625 C-8.88699219 4.99851562 -8.08648438 4.37203125 -7.26171875 3.7265625 C-2.3800905 0 -2.3800905 0 0 0 Z " fill="#052D72" transform="translate(540,746)" />
<path d="M0 0 C0.56203125 0.22300781 1.1240625 0.44601562 1.703125 0.67578125 C-0.08497197 1.8479117 -1.87746625 3.01333651 -3.671875 4.17578125 C-4.66960938 4.82546875 -5.66734375 5.47515625 -6.6953125 6.14453125 C-9.296875 7.67578125 -9.296875 7.67578125 -11.296875 7.67578125 C-11.296875 7.01578125 -11.296875 6.35578125 -11.296875 5.67578125 C-9.46875 4.1328125 -9.46875 4.1328125 -7.046875 2.48828125 C-6.25796875 1.93785156 -5.4690625 1.38742187 -4.65625 0.8203125 C-2.296875 -0.32421875 -2.296875 -0.32421875 0 0 Z " fill="#053078" transform="translate(565.296875,330.32421875)" />
<path d="M0 0 C3 4 3 4 3 8 C2.34 8 1.68 8 1 8 C1 11.3 1 14.6 1 18 C0.67 18 0.34 18 0 18 C0 12.06 0 6.12 0 0 Z " fill="#043784" transform="translate(394,631)" />
<path d="M0 0 C0.33 0 0.66 0 1 0 C2.10852275 4.43409099 2.21993456 8.45468578 2 13 C1.34 13.99 0.68 14.98 0 16 C-0.91397824 10.31302429 -0.91397824 5.68697571 0 0 Z " fill="#012470" transform="translate(449,467)" />
<path d="M0 0 C-3.01447835 2.57075841 -5.35979771 3.52207066 -9.25 4.1875 C-10.58804688 4.42533203 -10.58804688 4.42533203 -11.953125 4.66796875 C-12.96632813 4.83232422 -12.96632813 4.83232422 -14 5 C-14 4.34 -14 3.68 -14 3 C-4.58997722 -0.44419134 -4.58997722 -0.44419134 0 0 Z " fill="#053179" transform="translate(614,310)" />
<path d="M0 0 C0.2475 0.53625 0.495 1.0725 0.75 1.625 C2.29696975 4.56424252 4.13014369 7.25754408 6 10 C3.32388302 9.63088042 2.1568531 9.15144437 0.1875 7.25 C-1.31690887 4.3995411 -0.92250763 3.01911587 0 0 Z " fill="#072A6A" transform="translate(305,686)" />
<path d="M0 0 C0.66 0.33 1.32 0.66 2 1 C0.35 3.64 -1.3 6.28 -3 9 C-3.33 8.01 -3.66 7.02 -4 6 C-2.0625 2.8125 -2.0625 2.8125 0 0 Z " fill="#032A72" transform="translate(523,368)" />
<path d="M0 0 C2.31 1.98 4.62 3.96 7 6 C6.67 6.99 6.34 7.98 6 9 C4.99406757 7.8803014 3.9954151 6.7540588 3 5.625 C2.443125 4.99851562 1.88625 4.37203125 1.3125 3.7265625 C0 2 0 2 0 0 Z " fill="#032D72" transform="translate(488,353)" />
<path d="M0 0 C3.82097239 0.53069061 6.06171403 1.49701566 9 4 C8.01 4.33 7.02 4.66 6 5 C2.8125 3.125 2.8125 3.125 0 1 C0 0.67 0 0.34 0 0 Z " fill="#063781" transform="translate(443,322)" />
<path d="M0 0 C3 1 3 1 3 1 Z " fill="#0A4E90" transform="translate(657,296)" />
<path d="M0 0 C2 1 2 1 2 1 Z " fill="#0E4A8C" transform="translate(483,749)" />
<path d="" fill="#0E4A8C" transform="translate(0,0)" />
<path d="M0 0 C2 1 2 1 2 1 Z " fill="#0D4C8E" transform="translate(596,725)" />
<path d="M0 0 C2 1 2 1 2 1 Z " fill="#0C4A8F" transform="translate(403,718)" />
<path d="M0 0 C2 1 2 1 2 1 Z " fill="#0D4C91" transform="translate(652,711)" />
<path d="M0 0 C2 1 2 1 2 1 Z " fill="#0D4A90" transform="translate(368,711)" />
<path d="M0 0 C2 1 2 1 2 1 Z " fill="#0E4C8F" transform="translate(663,709)" />
<path d="M0 0 C2 1 2 1 2 1 Z " fill="#0E4B8F" transform="translate(361,709)" />
<path d="M0 0 C2 1 2 1 2 1 Z " fill="#0C4D8F" transform="translate(595,313)" />
<path d="M0 0 C2 1 2 1 2 1 Z " fill="#0C4B8E" transform="translate(598,312)" />
<path d="M0 0 C2 1 2 1 2 1 Z " fill="#0E5190" transform="translate(624,304)" />
<path d="M0 0 C2 1 2 1 2 1 Z " fill="#0C4C8D" transform="translate(362,296)" />
<path d="" fill="#104C8C" transform="translate(0,0)" />
<path d="" fill="#134D83" transform="translate(0,0)" />
<path d="" fill="#0D498B" transform="translate(0,0)" />
<path d="" fill="#0D498B" transform="translate(0,0)" />
<path d="" fill="#0B4A8D" transform="translate(0,0)" />
<path d="" fill="#0C498C" transform="translate(0,0)" />
<path d="" fill="#0A488B" transform="translate(0,0)" />
<path d="" fill="#0B498E" transform="translate(0,0)" />
<path d="" fill="#0C4A8D" transform="translate(0,0)" />
<path d="" fill="#0D4B8E" transform="translate(0,0)" />
<path d="" fill="#104D92" transform="translate(0,0)" />
<path d="" fill="#0E4A8D" transform="translate(0,0)" />
<path d="" fill="#104E8C" transform="translate(0,0)" />
<path d="" fill="#0B4C90" transform="translate(0,0)" />
<path d="" fill="#0F4B8F" transform="translate(0,0)" />
<path d="" fill="#0D4C8F" transform="translate(0,0)" />
<path d="" fill="#104A8A" transform="translate(0,0)" />
<path d="" fill="#0B4B8E" transform="translate(0,0)" />
<path d="" fill="#134B8B" transform="translate(0,0)" />
<path d="" fill="#104C8D" transform="translate(0,0)" />
<path d="" fill="#134D8B" transform="translate(0,0)" />
<path d="" fill="#114A89" transform="translate(0,0)" />
<path d="" fill="#114C87" transform="translate(0,0)" />
<path d="" fill="#0F4B85" transform="translate(0,0)" />
<path d="" fill="#124A86" transform="translate(0,0)" />
<path d="" fill="#0C4D91" transform="translate(0,0)" />
<path d="" fill="#0C4E94" transform="translate(0,0)" />
<path d="" fill="#0C5099" transform="translate(0,0)" />
<path d="" fill="#0E5199" transform="translate(0,0)" />
<path d="" fill="#18619B" transform="translate(0,0)" />
<path d="" fill="#0C4F98" transform="translate(0,0)" />
<path d="" fill="#094D94" transform="translate(0,0)" />
<path d="" fill="#0D4D8F" transform="translate(0,0)" />
<path d="" fill="#0E4C8F" transform="translate(0,0)" />
<path d="" fill="#0F4B90" transform="translate(0,0)" />
<path d="" fill="#0D4F90" transform="translate(0,0)" />
<path d="" fill="#0D5190" transform="translate(0,0)" />
<path d="" fill="#094C8E" transform="translate(0,0)" />
<path d="" fill="#0E4D91" transform="translate(0,0)" />
<path d="" fill="#0D4E92" transform="translate(0,0)" />
<path d="" fill="#0B4D92" transform="translate(0,0)" />
<path d="" fill="#0C4D90" transform="translate(0,0)" />
<path d="" fill="#0C4B8F" transform="translate(0,0)" />
<path d="" fill="#0D4E90" transform="translate(0,0)" />
<path d="" fill="#134A84" transform="translate(0,0)" />
<path d="" fill="#104D88" transform="translate(0,0)" />
<path d="" fill="#0F4E8B" transform="translate(0,0)" />
<path d="" fill="#114F8D" transform="translate(0,0)" />
</svg>
