<?xml version="1.0" encoding="UTF-8"?>
<svg version="1.1" xmlns="http://www.w3.org/2000/svg" width="1024" height="1024">
<path d="M0 0 C0.95097565 0.15839355 1.90195129 0.31678711 2.88174438 0.47998047 C50.97754315 8.49771317 101.13562533 19.04616515 137.5 53.875 C138.36625 54.7 139.2325 55.525 140.125 56.375 C163.5 80.98026316 163.5 80.98026316 163.5 93.875 C164.16 93.875 164.82 93.875 165.5 93.875 C165.7578125 93.02035156 166.015625 92.16570312 166.28125 91.28515625 C177.11225461 60.97917219 205.83077263 39.51589262 233.53515625 25.84765625 C241.97588235 21.875 241.97588235 21.875 244.5 21.875 C244.5 20.885 244.5 19.895 244.5 18.875 C245.49 19.205 246.48 19.535 247.5 19.875 C250.04214595 19.28733125 250.04214595 19.28733125 252.86328125 18.25 C253.9610791 17.87665527 255.05887695 17.50331055 256.18994141 17.11865234 C257.98310791 16.50304443 257.98310791 16.50304443 259.8125 15.875 C281.96098138 8.50605982 304.52559068 3.86753824 327.5 -0.0625 C328.39414612 -0.21833557 329.28829224 -0.37417114 330.20953369 -0.534729 C357.94812645 -5.32764201 357.94812645 -5.32764201 365.625 -1.5625 C370.04337035 2.18350965 372.19087036 5.26953576 372.87253368 11.01485801 C373.03151489 15.06774072 373.056002 19.10327677 373.03916931 23.15841675 C373.04719648 24.73372715 373.05696264 26.30902948 373.06831461 27.88431942 C373.09438678 32.20660665 373.09564176 36.5285982 373.09278262 40.85095 C373.0940127 45.51503845 373.11818234 50.17901575 373.13943481 54.8430481 C373.17736472 63.97786699 373.19388675 73.11260524 373.20294964 82.24749361 C373.21416467 92.8863122 373.2453229 103.52504435 373.27700336 114.16381826 C373.332735 133.1480955 373.36847622 152.13235942 373.39379883 171.11669922 C373.41836917 189.53538937 373.45978932 207.95394639 373.51879883 226.37255859 C373.58303601 246.4291242 373.63769604 266.48567349 373.67591387 286.54230702 C373.68000463 288.68158731 373.68410125 290.82086759 373.68820381 292.96014786 C373.69021011 294.01270666 373.6922164 295.06526546 373.6942835 296.14971998 C373.70902154 303.56401475 373.73041867 310.97827327 373.75425529 318.39254379 C373.78305716 327.43067916 373.80085429 336.46875855 373.80472671 345.50694023 C373.80695398 350.11767134 373.81396105 354.72826033 373.83407402 359.33895111 C373.85234704 363.56187185 373.85659648 367.78456865 373.849778 372.00752129 C373.84973753 373.53304299 373.85475281 375.05857522 373.86540984 376.5840597 C373.92556572 385.68021214 373.94524455 394.03012486 368.5 401.6875 C360.92916339 407.20790169 351.17887596 408.78971141 342.14453125 410.5390625 C339.74279971 411.02096535 337.34110858 411.50306966 334.93945312 411.98535156 C333.69429932 412.23224731 332.44914551 412.47914307 331.16625977 412.73352051 C324.63278037 414.03297306 318.10644019 415.36680504 311.58203125 416.7109375 C310.93195225 416.84480865 310.28187325 416.97867981 309.61209488 417.11660767 C282.91007528 422.62921026 256.35640896 429.17468762 230.5 437.875 C229.35168701 438.26051025 229.35168701 438.26051025 228.18017578 438.65380859 C209.2290927 445.12901363 191.9543466 454.06117549 176.0078125 466.17578125 C171.19255877 469.43845317 167.31323724 470.45632372 161.5 469.875 C155.13615129 468.01575793 149.99026118 464.23008084 144.63671875 460.43798828 C101.4307073 430.00301978 42.65328815 421.49363965 -7.9453125 411.22265625 C-10.91846339 410.61867159 -13.89161194 410.01467618 -16.86468506 409.41030884 C-18.53301784 409.0714221 -20.20149754 408.73325714 -21.87017822 408.39608765 C-23.85720932 407.99315488 -25.84274535 407.58286774 -27.828125 407.171875 C-28.86098633 406.96014648 -29.89384766 406.74841797 -30.95800781 406.53027344 C-36.04355829 405.21932285 -38.58158491 403.06645741 -41.8125 398.875 C-44.40186924 394.27167691 -44.62571227 390.73698469 -44.63142776 385.47334766 C-44.6334804 384.82984665 -44.63553303 384.18634565 -44.63764787 383.52334461 C-44.64332057 381.35830211 -44.64186029 379.19332317 -44.64044189 377.02827454 C-44.64302538 375.46381167 -44.64603849 373.89934945 -44.6494453 372.33488816 C-44.65752057 368.02869972 -44.65930516 363.72252795 -44.66004276 359.41633284 C-44.66189241 354.77473797 -44.66943932 350.13315176 -44.67617798 345.49156189 C-44.68976575 335.33862688 -44.69578676 325.18569582 -44.70018864 315.03275323 C-44.70295041 308.69409301 -44.70718765 302.35543432 -44.71169281 296.01677513 C-44.72388624 278.46959815 -44.73418529 260.9224224 -44.7375679 243.37524128 C-44.73778747 242.25195355 -44.73800703 241.12866581 -44.73823325 239.97133906 C-44.73845153 238.84535036 -44.73866981 237.71936165 -44.7388947 236.55925208 C-44.73933817 234.2775385 -44.73978473 231.99582491 -44.74023438 229.71411133 C-44.74056652 228.01639511 -44.74056652 228.01639511 -44.74090537 226.28438159 C-44.74485335 207.94516206 -44.76230702 189.60598227 -44.7855939 171.26677809 C-44.80930489 152.44172983 -44.82176964 133.61670151 -44.82293582 114.79163808 C-44.82385274 104.22065676 -44.82960935 93.64972721 -44.84775543 83.07876015 C-44.86315302 74.07713405 -44.8682789 65.07557571 -44.86001733 56.07393894 C-44.85610958 51.48146582 -44.85704655 46.88912917 -44.87107468 42.29667282 C-44.883806 38.09027036 -44.88262284 33.88410704 -44.87048396 29.67770495 C-44.86852563 28.15815668 -44.87161172 26.63859152 -44.88032833 25.11906699 C-44.97861682 6.82256302 -44.97861682 6.82256302 -40.08346677 1.26750642 C-29.75176114 -7.81823299 -12.25788537 -2.07544288 0 0 Z M49.5 78.875 C47.87099354 80.50400646 48.37314901 82.31858677 48.37136555 84.56835079 C48.3681411 85.58974335 48.36491665 86.6111359 48.3615945 87.66347975 C48.3631431 88.79925052 48.3646917 89.93502128 48.36628723 91.10520935 C48.36402167 92.30113349 48.36175612 93.49705762 48.35942191 94.72922188 C48.35416347 98.06378019 48.35344096 101.39828483 48.35461628 104.73284352 C48.35481955 108.32322209 48.3493087 111.91359248 48.34455872 115.50396729 C48.33623541 122.54373546 48.33350312 129.58349526 48.33294634 136.62326794 C48.33247198 142.34262258 48.33042125 148.06197444 48.32724571 153.7813282 C48.31843461 169.97918595 48.31382706 186.17703707 48.31457619 202.37489723 C48.31461614 203.24899609 48.3146561 204.12309494 48.31469727 205.02368164 C48.31473815 205.89884165 48.31477903 206.77400165 48.31482115 207.67568166 C48.31522776 221.86507066 48.3056555 236.05443314 48.2915589 250.24381446 C48.27721521 264.79615737 48.2702876 279.34848732 48.27115268 293.90083748 C48.27148534 302.07780295 48.26870806 310.25474063 48.25797462 318.43169975 C48.24889597 325.39289861 48.24667255 332.35405707 48.25348405 339.31525927 C48.25676265 342.869885 48.25675807 346.42443311 48.2481308 349.97905159 C48.23889128 353.82533993 48.24500679 357.67151324 48.25276184 361.51780701 C48.24761828 362.65134705 48.24247471 363.7848871 48.23717529 364.95277685 C48.24177408 365.97677715 48.24637288 367.00077745 48.25111103 368.05580807 C48.25089366 368.94457101 48.25067629 369.83333395 48.25045234 370.7490291 C48.3026882 373.09092193 48.3026882 373.09092193 50.5 374.875 C53.4348735 375.72763909 56.34132526 376.48515617 59.3125 377.1875 C60.19599121 377.40188721 61.07948242 377.61627441 61.98974609 377.8371582 C63.86524766 378.29091924 65.74157853 378.74126397 67.61865234 379.18847656 C70.46235204 379.86602982 73.3036095 380.55308972 76.14453125 381.2421875 C77.97121779 381.68285738 79.79803685 382.12297835 81.625 382.5625 C82.46393799 382.76464111 83.30287598 382.96678223 84.16723633 383.17504883 C88.45216959 384.19462449 92.74592327 385.16812048 97.0546875 386.08203125 C97.88210449 386.25839111 98.70952148 386.43475098 99.56201172 386.61645508 C100.20154785 386.7017749 100.84108398 386.78709473 101.5 386.875 C103.26926878 385.10573122 102.63032733 382.56562541 102.6328125 380.16796875 C102.63474609 378.90428467 102.63667969 377.64060059 102.63867188 376.33862305 C102.63452575 374.91324744 102.62995344 373.48787303 102.625 372.0625 C102.62411377 371.33680817 102.62322754 370.61111633 102.62231445 369.86343384 C102.59833096 352.7362239 102.23365726 335.61343061 101.85595703 318.4909668 C101.63689224 308.42115305 101.44995976 298.35367009 101.42578125 288.28125 C101.41998047 287.02087166 101.41998047 287.02087166 101.4140625 285.73503113 C101.42059114 272.89361304 102.87177319 260.27706767 111.78125 250.25390625 C120.74865613 243.05960088 130.35853065 241.13039685 141.5 241.875 C159.73863706 245.03993996 173.80942251 260.56905475 185.61401367 273.70654297 C186.20931885 274.36412598 186.80462402 275.02170898 187.41796875 275.69921875 C188.20337036 276.58226685 188.20337036 276.58226685 189.00463867 277.4831543 C190.56278485 279.12641659 190.56278485 279.12641659 193.5 279.875 C194.16789187 281.20772003 194.83423928 282.54121408 195.5 283.875 C197.25159593 285.89072547 199.00293721 287.79326804 200.875 289.6875 C201.59816406 290.4599707 201.59816406 290.4599707 202.3359375 291.24804688 C205.00718012 294.08024437 205.00718012 294.08024437 208.640625 294.93359375 C210.93507729 293.62729843 212.22471278 292.18592207 213.875 290.125 C216.81759892 286.5938813 219.96434423 283.82137981 223.5 280.875 C224.49894981 279.76752917 225.47598188 278.64012072 226.4375 277.5 C230.18459868 273.10012621 234.2321343 269.02509783 238.3125 264.9375 C239.3188147 263.92453857 239.3188147 263.92453857 240.34545898 262.89111328 C240.98040283 262.25802246 241.61534668 261.62493164 242.26953125 260.97265625 C242.84292236 260.40039307 243.41631348 259.82812988 244.00708008 259.23852539 C245.5 257.875 245.5 257.875 247.5 256.875 C247.5 256.215 247.5 255.555 247.5 254.875 C248.16 254.875 248.82 254.875 249.5 254.875 C249.5 254.215 249.5 253.555 249.5 252.875 C250.16 252.875 250.82 252.875 251.5 252.875 C251.5 252.215 251.5 251.555 251.5 250.875 C252.38365234 250.49794922 252.38365234 250.49794922 253.28515625 250.11328125 C255.77644202 248.72044599 257.12300414 247.2541428 258.9375 245.0625 C261.66245717 241.83999226 264.51480593 238.86019407 267.5 235.875 C280.82896388 222.48301502 282.78348833 207.54958793 283.11328125 189.546875 C283.15072383 187.82272785 283.18843437 186.09858651 283.22639465 184.37445068 C283.60592728 166.13034961 283.68732999 147.88376349 283.68530273 129.63623047 C283.68519826 124.94619087 283.69920809 120.25629319 283.71607494 115.56628799 C283.72713444 111.90156356 283.72922436 108.23687535 283.72869301 104.57213593 C283.72986841 102.83855417 283.73426537 101.10497134 283.74202538 99.37140656 C283.75176569 96.98610074 283.74897895 94.60113091 283.74291992 92.21582031 C283.74853943 91.51176559 283.75415894 90.80771088 283.75994873 90.08232117 C283.73633558 86.44484779 283.57910741 84.99366112 281.5 81.875 C270.3143512 84.05756562 261.85225532 87.1213262 252.5 93.875 C251.45392578 94.6175 251.45392578 94.6175 250.38671875 95.375 C239.61765856 103.78012015 234.89315545 115.978264 233.25 129.125 C232.49608101 135.70229322 232.4595375 142.17165941 232.49169922 148.78955078 C232.51635702 155.04717393 232.39524783 161.30100275 232.23754883 167.55639648 C232.20397553 168.98596386 232.17604891 170.41567421 232.15356445 171.84545898 C231.98184757 182.58324445 231.70176128 193.23288646 224.5 201.875 C218.28966148 206.56443929 213.15129094 207.84684265 205.5 206.875 C201.44398202 205.47169966 197.69522715 203.57025769 193.875 201.625 C173.26318378 191.69459804 151.16017391 187.02779211 128.75 194.625 C119.25059609 198.45858733 110.48000074 203.22285104 103.5 210.875 C103.5 211.535 103.5 212.195 103.5 212.875 C102.84 212.545 102.18 212.215 101.5 211.875 C101.665 210.946875 101.83 210.01875 102 209.0625 C102.57748388 205.91878647 102.57748388 205.91878647 102.5 202.875 C102.5072145 200.9435265 102.51449699 199.01205321 102.5222168 197.08058167 C102.55942593 187.74198427 102.58541217 178.40339459 102.60362434 169.06474113 C102.61405274 163.8963161 102.62820382 158.72795728 102.65087891 153.55957031 C102.67268327 148.5570117 102.68458375 143.5545167 102.68975449 138.55191422 C102.6934344 136.65023928 102.70062016 134.74856762 102.71146011 132.84692001 C102.72607789 130.17635429 102.72797375 127.50604881 102.72705078 124.83544922 C102.73424133 124.05900558 102.74143188 123.28256195 102.74884033 122.48258972 C102.71008048 112.04916181 100.05873966 104.0825171 93.5 95.875 C81.50615796 84.04187946 66.1523243 78.97684908 49.5 78.875 Z M252.84155273 293.23828125 C251.14022609 294.92794709 249.43440716 296.6131004 247.72436523 298.29394531 C245.2296639 300.74622701 242.74825148 303.21126616 240.26953125 305.6796875 C239.50300735 306.42870331 238.73648346 307.17771912 237.94673157 307.94943237 C236.89379158 309.00676071 236.89379158 309.00676071 235.81958008 310.08544922 C235.20069412 310.69846893 234.58180817 311.31148865 233.94416809 311.94308472 C230.92313961 315.98442252 231.37731303 320.7282211 231.38647461 325.59301758 C231.38632858 326.24723694 231.38618256 326.9014563 231.3860321 327.57550049 C231.38672506 329.72354526 231.39448836 331.87150175 231.40234375 334.01953125 C231.40421012 335.51454114 231.40563299 337.00955165 231.40663147 338.50456238 C231.41043936 342.42871811 231.42025482 346.3528365 231.43133545 350.27697754 C231.44158679 354.28555801 231.44613706 358.29414455 231.45117188 362.30273438 C231.4618787 370.16017334 231.47893428 378.01758202 231.5 385.875 C235.40374329 386.67569673 238.33880005 386.97762968 242.2043457 385.99462891 C243.08157791 385.7775528 243.95881012 385.56047668 244.86262512 385.33682251 C245.79096664 385.09418671 246.71930817 384.8515509 247.67578125 384.6015625 C248.64154587 384.35836273 249.60731049 384.11516296 250.6023407 383.86459351 C252.63513565 383.3504442 254.66651814 382.83068184 256.6965332 382.30566406 C259.81623608 381.499034 262.93977648 380.70899417 266.06445312 379.921875 C268.03930518 379.42022522 270.01392328 378.91765336 271.98828125 378.4140625 C272.92674393 378.17547516 273.8652066 377.93688782 274.83210754 377.69107056 C275.69357895 377.46769012 276.55505035 377.24430969 277.44262695 377.01416016 C278.20396439 376.81795074 278.96530182 376.62174133 279.74971008 376.41958618 C281.50903247 376.02100225 281.50903247 376.02100225 282.5 374.875 C282.89938018 370.20163453 282.93929031 365.50062223 283.0625 360.8125 C283.08334656 360.06277924 283.10419312 359.31305847 283.12567139 358.5406189 C283.58346421 341.48375281 283.61016602 324.4219611 283.62293625 307.3601265 C283.6249949 305.19286988 283.62875661 303.02562157 283.63284302 300.85836792 C283.6398771 296.73498518 283.63710041 292.61166804 283.6328125 288.48828125 C283.63479141 287.24887787 283.63677032 286.00947449 283.6388092 284.73251343 C283.62182655 278.36118136 283.35101681 272.19086311 282.5 265.875 C274.92077638 265.875 258.0178463 288.08675464 252.84155273 293.23828125 Z " fill="#000000" transform="translate(347.5,294.125)"/>
<path d="M0 0 C0.66 0.33 1.32 0.66 2 1 C-0.64 3.64 -3.28 6.28 -6 9 C-6.33 8.34 -6.66 7.68 -7 7 C-4.66666667 4.66666667 -2.33333333 2.33333333 0 0 Z " fill="#1D1C1C" transform="translate(312,292)"/>
<path d="M0 0 C0.33 0 0.66 0 1 0 C1 1.98 1 3.96 1 6 C0.67 6 0.34 6 0 6 C0 4.02 0 2.04 0 0 Z " fill="#242525" transform="translate(448,470)"/>
<path d="M0 0 C3 1 3 1 3 1 Z " fill="#2D2B2B" transform="translate(481,749)"/>
<path d="M0 0 C0.99 0.495 0.99 0.495 2 1 C1.01 1.495 1.01 1.495 0 2 C0 1.34 0 0.68 0 0 Z " fill="#282827" transform="translate(464,741)"/>
<path d="" fill="#20211F" transform="translate(0,0)"/>
<path d="" fill="#212121" transform="translate(0,0)"/>
<path d="M0 0 C2 1 2 1 2 1 Z " fill="#2F2F2F" transform="translate(345,707)"/>
<path d="M0 0 C2 1 2 1 2 1 Z " fill="#222222" transform="translate(608,672)"/>
<path d="M0 0 C2 1 2 1 2 1 Z " fill="#212020" transform="translate(421,672)"/>
<path d="" fill="#1E1D1D" transform="translate(0,0)"/>
<path d="" fill="#29282B" transform="translate(0,0)"/>
<path d="" fill="#242424" transform="translate(0,0)"/>
<path d="" fill="#1F1F1E" transform="translate(0,0)"/>
<path d="" fill="#212020" transform="translate(0,0)"/>
<path d="" fill="#1E1E1F" transform="translate(0,0)"/>
<path d="" fill="#5B5B5B" transform="translate(0,0)"/>
<path d="" fill="#2C2D2D" transform="translate(0,0)"/>
<path d="" fill="#2B2D2D" transform="translate(0,0)"/>
<path d="" fill="#262828" transform="translate(0,0)"/>
<path d="" fill="#262729" transform="translate(0,0)"/>
<path d="" fill="#2E2E2E" transform="translate(0,0)"/>
<path d="" fill="#2D2B2B" transform="translate(0,0)"/>
<path d="" fill="#3D3D3B" transform="translate(0,0)"/>
<path d="" fill="#3C3D3D" transform="translate(0,0)"/>
<path d="" fill="#3B3A3B" transform="translate(0,0)"/>
<path d="" fill="#202323" transform="translate(0,0)"/>
<path d="" fill="#20221F" transform="translate(0,0)"/>
<path d="" fill="#20221F" transform="translate(0,0)"/>
<path d="" fill="#1F2020" transform="translate(0,0)"/>
<path d="" fill="#252523" transform="translate(0,0)"/>
<path d="" fill="#1F1F1F" transform="translate(0,0)"/>
<path d="" fill="#222223" transform="translate(0,0)"/>
<path d="" fill="#21201E" transform="translate(0,0)"/>
<path d="" fill="#202020" transform="translate(0,0)"/>
<path d="" fill="#1B1D1D" transform="translate(0,0)"/>
<path d="" fill="#1E1D1C" transform="translate(0,0)"/>
<path d="" fill="#1F1F1F" transform="translate(0,0)"/>
<path d="" fill="#20201F" transform="translate(0,0)"/>
<path d="" fill="#21211F" transform="translate(0,0)"/>
<path d="" fill="#20201F" transform="translate(0,0)"/>
<path d="" fill="#282828" transform="translate(0,0)"/>
<path d="" fill="#282829" transform="translate(0,0)"/>
<path d="" fill="#20211E" transform="translate(0,0)"/>
<path d="" fill="#2B2B2D" transform="translate(0,0)"/>
<path d="" fill="#2D2D2C" transform="translate(0,0)"/>
<path d="" fill="#2E302E" transform="translate(0,0)"/>
<path d="" fill="#232422" transform="translate(0,0)"/>
<path d="" fill="#211F1F" transform="translate(0,0)"/>
<path d="" fill="#252025" transform="translate(0,0)"/>
<path d="" fill="#252423" transform="translate(0,0)"/>
<path d="" fill="#20201F" transform="translate(0,0)"/>
<path d="" fill="#242324" transform="translate(0,0)"/>
<path d="" fill="#202120" transform="translate(0,0)"/>
<path d="" fill="#232120" transform="translate(0,0)"/>
<path d="" fill="#1D1C1D" transform="translate(0,0)"/>
<path d="" fill="#1C1C1C" transform="translate(0,0)"/>
<path d="" fill="#1E201D" transform="translate(0,0)"/>
<path d="" fill="#201F1F" transform="translate(0,0)"/>
<path d="" fill="#272726" transform="translate(0,0)"/>
<path d="" fill="#272928" transform="translate(0,0)"/>
<path d="" fill="#444444" transform="translate(0,0)"/>
<path d="" fill="#282824" transform="translate(0,0)"/>
<path d="" fill="#29292A" transform="translate(0,0)"/>
<path d="" fill="#282628" transform="translate(0,0)"/>
<path d="" fill="#2A2829" transform="translate(0,0)"/>
<path d="" fill="#272727" transform="translate(0,0)"/>
<path d="" fill="#2B2D2B" transform="translate(0,0)"/>
<path d="" fill="#2F2E2E" transform="translate(0,0)"/>
<path d="" fill="#2E2C2C" transform="translate(0,0)"/>
<path d="" fill="#333230" transform="translate(0,0)"/>
<path d="" fill="#30302E" transform="translate(0,0)"/>
<path d="" fill="#39393B" transform="translate(0,0)"/>
<path d="" fill="#373839" transform="translate(0,0)"/>
<path d="" fill="#313332" transform="translate(0,0)"/>
<path d="" fill="#3B3C3D" transform="translate(0,0)"/>
<path d="" fill="#373937" transform="translate(0,0)"/>
<path d="" fill="#3C3D3C" transform="translate(0,0)"/>
<path d="" fill="#3B3B3A" transform="translate(0,0)"/>
</svg>
