<?xml version="1.0" encoding="UTF-8"?>
<svg version="1.1" xmlns="http://www.w3.org/2000/svg" width="1024" height="1024">
<path d="M0 0 C0.80622803 0.08515869 1.61245605 0.17031738 2.44311523 0.25805664 C10.80205576 1.2384404 19.05337303 2.78230829 27.3125 4.375 C28.3105365 4.56559494 28.3105365 4.56559494 29.32873535 4.76004028 C36.413526 6.12213898 43.35162722 7.59038162 50.19702148 9.88891602 C52.53990058 10.60960401 52.53990058 10.60960401 56.25 10.4375 C56.25 11.0975 56.25 11.7575 56.25 12.4375 C56.82363281 12.53804688 57.39726562 12.63859375 57.98828125 12.7421875 C67.59781435 14.87115841 75.81231377 19.71588167 84.33984375 24.45361328 C86.37881141 25.5655943 86.37881141 25.5655943 89.25 26.4375 C90.43710032 27.55676601 91.61534822 28.68746164 92.73828125 29.87109375 C93.82784965 31.00007806 94.95562865 32.09262049 96.10546875 33.16015625 C104.89698259 41.44152422 110.10350808 51.63552245 115.25 62.4375 C115.95962891 60.89642578 115.95962891 60.89642578 116.68359375 59.32421875 C127.54855946 36.29818445 145.21244994 22.03343999 168.9296875 13.27734375 C185.6180358 7.40250244 202.55260296 3.08426591 220.0625 0.5625 C220.96371582 0.42996826 221.86493164 0.29743652 222.79345703 0.16088867 C229.22401982 -0.68110824 235.52257078 -1.40055012 241.125 2.375 C245.79334706 9.10291195 245.5446703 17.7910325 245.51742554 25.73550415 C245.52195665 26.72253999 245.52648776 27.70957583 245.53115618 28.72652185 C245.54373532 32.0073458 245.54218405 35.28800238 245.54052734 38.56884766 C245.5465164 40.93169873 245.55332281 43.29454784 245.56088257 45.65739441 C245.57850527 52.05590618 245.58323621 58.45436442 245.58451414 64.85289812 C245.58593771 68.85214572 245.59008358 72.85138425 245.59550858 76.8506279 C245.61309751 90.0873723 245.62235038 103.32408439 245.62084763 116.56084056 C245.62076772 117.27295068 245.6206878 117.98506079 245.62060547 118.71875 C245.62052371 119.43173466 245.62044195 120.14471932 245.62035771 120.87930958 C245.61954404 132.44517427 245.638708 144.01090897 245.6668822 155.57673605 C245.69562285 167.46935103 245.70942205 179.36190261 245.70769465 191.2545532 C245.70703147 197.9247825 245.71288406 204.59489461 245.73405075 211.26509476 C245.75340433 217.53443081 245.75357707 223.80347829 245.73901749 230.07282448 C245.73692517 232.37220875 245.74165536 234.67161096 245.7537384 236.97096443 C245.76917547 240.11213686 245.75989236 243.25231216 245.74447632 246.39346313 C245.75476344 247.30105775 245.76505057 248.20865236 245.77564943 249.14374983 C245.71254257 254.970722 244.68422336 259.62423945 241.25 264.4375 C237.08280107 267.28710446 232.64592074 268.17142907 227.73828125 269.015625 C226.25688025 269.2880472 224.77551788 269.56067953 223.29418945 269.83349609 C222.52257477 269.97229187 221.75096008 270.11108765 220.95596313 270.25408936 C186.89441533 276.42198773 149.8451303 283.76531586 121.76293945 305.20092773 C116.26133331 309.38115489 116.26133331 309.38115489 113.25 309.4375 C111.19921875 308.3203125 111.19921875 308.3203125 108.9375 306.5625 C84.61493599 288.75427628 56.3593007 280.85657707 27.3125 274 C26.27786621 273.7529834 25.24323242 273.5059668 24.17724609 273.25146484 C17.21794818 271.67129087 10.37182779 270.8538287 3.25 270.4375 C3.25 269.7775 3.25 269.1175 3.25 268.4375 C2.44175781 268.40011719 1.63351563 268.36273437 0.80078125 268.32421875 C-0.80216797 268.22560547 -0.80216797 268.22560547 -2.4375 268.125 C-3.49324219 268.06699219 -4.54898438 268.00898437 -5.63671875 267.94921875 C-10.35939897 267.17296893 -12.77062713 265.58463031 -15.86589146 261.95917606 C-18.38582274 257.24905376 -18.30428118 253.51841961 -18.25120544 248.25865173 C-18.25950704 246.72492152 -18.25950704 246.72492152 -18.26797634 245.16020685 C-18.28158526 241.73538191 -18.26661174 238.31128538 -18.25170898 234.88647461 C-18.25549203 232.43067617 -18.26099195 229.97487986 -18.26808167 227.51908875 C-18.28060354 221.54236778 -18.27446521 215.56593216 -18.25940608 209.58923882 C-18.24253558 202.62841397 -18.24575751 195.66764165 -18.24950016 188.70680267 C-18.25537693 176.28715841 -18.24121383 163.86761558 -18.21655273 151.44799805 C-18.1926273 139.39750365 -18.18555071 127.34714474 -18.19604492 115.29663086 C-18.20745425 102.17178586 -18.20938442 89.0470035 -18.19494683 75.92215925 C-18.19342099 74.52269177 -18.19190064 73.12322428 -18.19038582 71.72375679 C-18.189628 71.03520271 -18.18887019 70.34664863 -18.18808941 69.63722927 C-18.1833471 64.78538986 -18.18519761 59.93357842 -18.18945122 55.08173943 C-18.19489226 48.5523109 -18.1841363 42.02304291 -18.16249657 35.49363899 C-18.15692312 33.09464273 -18.15646848 30.69562842 -18.16144943 28.29663086 C-18.16738706 25.0273322 -18.15492581 21.75861117 -18.13768005 18.48936462 C-18.1436901 17.53528448 -18.14970014 16.58120433 -18.15589231 15.59821266 C-18.10897007 10.72191236 -17.94135771 7.38716519 -14.75 3.4375 C-9.99511509 -0.7230243 -6.02651109 -0.6391077 0 0 Z M42.25 53.4375 C41.22223984 57.66024533 41.11190315 61.74207655 41.12974548 66.06208801 C41.12889106 66.82181732 41.12803663 67.58154663 41.12715632 68.36429805 C41.12551157 70.90540576 41.13100642 73.44644721 41.13647461 75.98754883 C41.13675672 77.81092324 41.13659827 79.63429777 41.1360321 81.45767212 C41.13574508 86.40557529 41.14162656 91.35345424 41.14860606 96.30135179 C41.15485531 101.47300993 41.15544465 106.64466862 41.15663147 111.81632996 C41.15974014 121.60868376 41.1679473 131.4010264 41.17798096 141.19337529 C41.18915648 152.34200797 41.19465618 163.49064117 41.19967639 174.63927805 C41.21013028 197.57202489 41.22772077 220.50476182 41.25 243.4375 C45.5064282 244.66154832 49.75795165 245.83272222 54.0625 246.875 C58.84774373 248.04726448 63.5204179 249.41970895 68.19140625 250.984375 C70.43144047 251.66189268 70.43144047 251.66189268 73.25 250.4375 C73.25586624 249.47363373 73.26173248 248.50976746 73.26777649 247.51669312 C73.32504172 238.42382221 73.39782322 229.33118958 73.48571491 220.23856163 C73.53040231 215.56416937 73.56966204 210.88986394 73.59643555 206.21533203 C73.62248479 201.70236078 73.66289867 197.18972396 73.71318626 192.67695999 C73.72984402 190.95706982 73.7413651 189.23712181 73.74761391 187.51716232 C73.75726699 185.1040229 73.78533972 182.69173692 73.81762695 180.27880859 C73.81619186 179.57102264 73.81475677 178.86323669 73.8132782 178.13400269 C73.92932202 171.98340034 75.60908047 168.07841953 79.9375 163.75 C86.34958245 158.86610428 93.30029258 157.39241291 101.25 158.4375 C116.13821112 162.11283245 125.23626209 173.20345315 135.5234375 183.7734375 C137.54817763 185.72488387 138.42000183 186.4375 141.25 186.4375 C146.64686818 183.34106678 150.69358264 179.19601635 155 174.75 C156.32589448 173.38974933 157.65391696 172.03156865 158.984375 170.67578125 C159.56413086 170.07805908 160.14388672 169.48033691 160.74121094 168.86450195 C162.25 167.4375 162.25 167.4375 164.25 166.4375 C164.25 165.7775 164.25 165.1175 164.25 164.4375 C164.91 164.4375 165.57 164.4375 166.25 164.4375 C167.71412122 162.95072339 167.71412122 162.95072339 169.25 161 C172.08684852 157.64682131 175.07626112 154.71243612 178.375 151.8125 C185.25916199 146.30896616 185.25916199 146.30896616 188.5 138.625 C188.4175 137.903125 188.335 137.18125 188.25 136.4375 C188.58 136.1075 188.91 135.7775 189.25 135.4375 C189.34502416 132.94257612 189.37557566 130.47543986 189.36352539 127.98022461 C189.36374443 126.8095771 189.36374443 126.8095771 189.3639679 125.61528015 C189.36326858 123.0234402 189.35547536 120.43167122 189.34765625 117.83984375 C189.34579213 116.0476536 189.3443682 114.25546294 189.34336853 112.46327209 C189.33954284 107.73679203 189.32971212 103.01034248 189.31866455 98.28387451 C189.30845153 93.4646445 189.30387115 88.64540958 189.29882812 83.82617188 C189.28808989 74.36326781 189.27101286 64.90038644 189.25 55.4375 C188.92 56.0975 188.59 56.7575 188.25 57.4375 C187.26 57.19 186.27 56.9425 185.25 56.6875 C180.36397736 56.04125252 177.23141702 57.71674633 173.25 60.4375 C163.30089253 68.09065959 159.42197551 74.2670738 157.59423828 86.54541016 C157.2130107 90.85571523 157.29664784 94.98719567 157.51171875 99.30078125 C157.5439151 100.0697171 157.57611145 100.83865295 157.60928345 101.63088989 C157.74399098 104.81336039 157.87991195 107.99077322 158.12084961 111.16723633 C159.06561857 124.22041873 159.06561857 124.22041873 155.98687744 127.97991943 C151.81046945 131.53973527 146.81722288 134.4375 141.25 134.4375 C140.2290625 133.6021875 140.2290625 133.6021875 139.1875 132.75 C129.02576535 124.75033655 115.12434869 120.94890343 102.25 122.4375 C89.83837853 124.66771323 81.80555514 129.37010509 72.25 137.4375 C72.58 136.7775 72.91 136.1175 73.25 135.4375 C73.35107239 133.64216469 73.38838025 131.8430868 73.39526367 130.04492188 C73.40164352 128.91614624 73.40802338 127.78737061 73.41459656 126.62438965 C73.41570938 125.39740356 73.4168222 124.17041748 73.41796875 122.90625 C73.42129715 121.64542603 73.42462555 120.38460205 73.42805481 119.08557129 C73.43312818 116.40889985 73.43589452 113.73232982 73.43530273 111.05566406 C73.43520182 107.65101289 73.4487777 104.24657361 73.46607494 100.84197235 C73.47998775 97.57173989 73.47928741 94.30150799 73.48046875 91.03125 C73.48765427 89.82045776 73.49483978 88.60966553 73.50224304 87.36218262 C73.5493507 73.79558562 73.5493507 73.79558562 67.76171875 61.8984375 C61.041363 55.40383013 51.07683813 54.85150805 42.25 53.4375 Z M181.1875 179 C177.4734179 182.45902046 173.76324501 185.91395035 169.9375 189.25 C169.33164062 189.78367187 168.72578125 190.31734375 168.1015625 190.8671875 C166.7734013 191.99360269 165.40901683 193.07782754 164.0234375 194.1328125 C163.29382813 194.70773437 162.56421875 195.28265625 161.8125 195.875 C161.15378906 196.36871094 160.49507812 196.86242187 159.81640625 197.37109375 C155.92938468 202.49886037 157.11676695 211.42623793 157.15234375 217.625 C157.1537587 218.56811035 157.15517365 219.5112207 157.15663147 220.48291016 C157.1621876 223.46780697 157.17473177 226.45262621 157.1875 229.4375 C157.19252068 231.47265516 157.19708259 233.50781151 157.20117188 235.54296875 C157.21214263 240.50784197 157.22937661 245.47265787 157.25 250.4375 C161.36464798 251.38831904 163.38643202 251.32188124 167.3125 249.6875 C173.18248316 247.38429135 179.11267614 245.85133377 185.25 244.4375 C185.25 243.7775 185.25 243.1175 185.25 242.4375 C186.735 242.9325 186.735 242.9325 188.25 243.4375 C190.04457378 241.64292622 189.37767418 238.94940544 189.37939453 236.52832031 C189.38412277 234.63064911 189.38412277 234.63064911 189.38894653 232.69464111 C189.38715598 231.30163539 189.38510484 229.90862999 189.3828125 228.515625 C189.38348585 227.09413639 189.38445614 225.67264789 189.38571167 224.25115967 C189.38718908 221.26508493 189.38503399 218.27904003 189.38037109 215.29296875 C189.37469443 211.47196682 189.37793938 207.65103546 189.38394356 203.83003616 C189.38756569 200.89088413 189.38640264 197.95174868 189.38381577 195.01259613 C189.38314999 193.6044387 189.38396269 192.19627974 189.38629532 190.78812408 C189.38884659 188.8135023 189.38426594 186.83887523 189.37939453 184.86425781 C189.37859894 183.74142395 189.37780334 182.61859009 189.37698364 181.46173096 C189.25981883 178.6713443 188.88622837 176.15142708 188.25 173.4375 C185.83268438 173.4375 182.97408852 177.32254641 181.1875 179 Z M70.25 251.4375 C71.735 252.4275 71.735 252.4275 73.25 253.4375 C73.25 252.7775 73.25 252.1175 73.25 251.4375 C72.26 251.4375 71.27 251.4375 70.25 251.4375 Z " fill="#000000" transform="translate(102.75,357.5625)"/>
<path d="M0 0 C8.58 0 17.16 0 26 0 C27.25282725 3.75848174 27.12381835 7.25490919 27.09765625 11.16796875 C27.0962413 11.96278152 27.09482635 12.7575943 27.09336853 13.57649231 C27.08777378 16.11353325 27.07522228 18.65048575 27.0625 21.1875 C27.05748432 22.90820185 27.05292153 24.62890508 27.04882812 26.34960938 C27.03780607 30.5664403 27.02054506 34.78320516 27 39 C27.78681152 38.52763916 28.57362305 38.05527832 29.38427734 37.56860352 C41.79059521 30.12874984 52.89462414 28.98466785 67 32 C79.31556311 35.98884635 87.68769668 45.46144361 93.4375 56.6640625 C98.59874164 67.68331341 98.75752591 81.85511807 95.0390625 93.41015625 C90.52147296 104.67016326 84.10330244 113.63340382 73 119 C61.74447117 123.62929008 49.99912775 125.0244711 38.33203125 121 C34.37747876 119.3042455 30.66836294 117.24177735 27 115 C26.67 116.98 26.34 118.96 26 121 C17.77058993 122.31670561 8.05795783 123.51312546 0 121 C-0.89302456 117.94600902 -1.11296695 115.25391088 -1.08229065 112.07720947 C-1.07525116 111.08725479 -1.06821167 110.09730011 -1.06095886 109.0773468 C-1.04801285 107.9976915 -1.03506683 106.91803619 -1.02172852 105.80566406 C-1.01212097 104.6639122 -1.00251343 103.52216034 -0.99261475 102.34580994 C-0.95961355 98.56901912 -0.91928522 94.79234356 -0.87890625 91.015625 C-0.85460624 88.39817716 -0.83076263 85.78072504 -0.80735779 83.16326904 C-0.75126353 76.97618825 -0.68989763 70.78917143 -0.62663645 64.60216022 C-0.55486271 57.557499 -0.48896779 50.51278663 -0.42356598 43.46806383 C-0.28891739 28.97864218 -0.14611237 14.48931072 0 0 Z M31 61 C30.443125 61.61875 29.88625 62.2375 29.3125 62.875 C25.4780007 69.08323696 25.06572456 76.32077173 26.46484375 83.328125 C28.42519318 90.14874905 31.90921092 94.93947394 37.8125 98.875 C45.66435771 101.6462439 52.36090972 101.48494036 60 98 C65.67295221 94.38123123 68.80311742 90.13468528 70.6875 83.625 C71.65151024 75.52731397 71.04247827 68.73274398 66.55859375 61.7578125 C61.9375521 55.9037783 57.23416783 53.69130519 49.9296875 52.7265625 C41.98886027 52.32173601 36.10022536 55.02545029 31 61 Z M26 112 C27 114 27 114 27 114 Z " fill="#010101" transform="translate(417,524)"/>
<path d="M0 0 C1.5631897 0.00785522 1.5631897 0.00785522 3.15795898 0.01586914 C4.28266602 0.0190918 5.40737305 0.02231445 6.56616211 0.02563477 C7.75016602 0.03401367 8.93416992 0.04239258 10.15405273 0.05102539 C11.34192383 0.05553711 12.52979492 0.06004883 13.75366211 0.06469727 C16.69967499 0.07652864 19.64558954 0.09301252 22.59155273 0.11352539 C27.70416318 10.33874629 23.11731359 30.94949694 22.59155273 42.11352539 C26.24788012 39.9437671 29.80496336 37.6668626 33.33374023 35.29711914 C41.74029096 30.8902249 52.3762415 30.81111269 61.53686523 32.73071289 C70.83644894 36.02492279 77.4082384 42.52975385 81.61889648 51.32836914 C84.62129706 59.92560453 84.92321012 68.08609702 85.00561523 77.11743164 C85.02498138 78.43645981 85.04434753 79.75548798 85.06430054 81.11448669 C85.11524385 84.5913311 85.15506954 88.06821385 85.19244385 91.54522705 C85.23272306 95.10519599 85.28370521 98.6650107 85.33374023 102.22485352 C85.43005065 109.18763095 85.51459637 116.15050784 85.59155273 123.11352539 C82.92977053 124.44441649 80.90415877 124.22621532 77.92749023 124.21118164 C76.24526367 124.20634766 76.24526367 124.20634766 74.52905273 124.20141602 C73.35342773 124.19303711 72.17780273 124.1846582 70.96655273 124.17602539 C69.78319336 124.17151367 68.59983398 124.16700195 67.38061523 124.16235352 C64.45087767 124.15054006 61.52124001 124.13406797 58.59155273 124.11352539 C57.77596307 121.25820564 57.4729833 118.74466225 57.49389648 115.77905273 C57.49719971 114.93071869 57.50050293 114.08238464 57.50390625 113.20834351 C57.51220459 112.2979129 57.52050293 111.3874823 57.52905273 110.44946289 C57.53283936 109.50221344 57.53662598 108.55496399 57.54052734 107.57901001 C57.55681975 103.53495938 57.58479332 99.49101071 57.61206055 95.44702148 C57.63029607 92.48950683 57.64230118 89.53200934 57.65405273 86.57446289 C57.66235107 85.67617767 57.67064941 84.77789246 57.67919922 83.85238647 C58.07988143 71.09491409 58.07988143 71.09491409 52.59155273 60.11352539 C48.45330056 56.68468787 43.84944267 55.9818587 38.59155273 56.11352539 C33.66622273 57.02105489 29.53739988 59.00677084 26.54467773 63.18847656 C21.18784212 74.00780259 23.37197977 89.20071629 23.46655273 100.86352539 C23.47660149 103.02497958 23.48572399 105.18643829 23.49389648 107.34790039 C23.5157623 112.60320847 23.54908994 117.85834547 23.59155273 123.11352539 C20.89385015 124.46237668 18.93881899 124.12931022 15.92749023 123.99243164 C14.80600586 123.9440918 13.68452148 123.89575195 12.52905273 123.84594727 C11.35342773 123.78987305 10.17780273 123.73379883 8.96655273 123.67602539 C7.78319336 123.62381836 6.59983398 123.57161133 5.38061523 123.51782227 C2.45067712 123.38786533 -0.47894399 123.25289011 -3.40844727 123.11352539 C-4.26532662 88.73352009 -4.72356933 54.43603672 -3.97094727 20.05102539 C-3.95138977 19.10682739 -3.93183228 18.16262939 -3.91168213 17.18981934 C-3.85493662 14.52750425 -3.79118297 11.86546068 -3.72485352 9.20336914 C-3.70813095 8.39788132 -3.69140839 7.59239349 -3.67417908 6.76249695 C-3.49460554 0.16472292 -3.49460554 0.16472292 0 0 Z " fill="#010101" transform="translate(420.408447265625,389.886474609375)"/>
<path d="M0 0 C1.02802734 0.0515625 2.05605469 0.103125 3.11523438 0.15625 C4.18708984 0.22070312 5.25894531 0.28515625 6.36328125 0.3515625 C7.9884668 0.43664062 7.9884668 0.43664062 9.64648438 0.5234375 C12.32358132 0.66495804 14.99974701 0.81637401 17.67578125 0.9765625 C18.68879418 4.33401 18.8025196 7.39212379 18.80517578 10.89086914 C18.80832794 12.08212906 18.8114801 13.27338898 18.81472778 14.50074768 C18.81270355 15.78311813 18.81067932 17.06548859 18.80859375 18.38671875 C18.81002884 20.36520058 18.81002884 20.36520058 18.81149292 22.38365173 C18.8129653 25.17187677 18.81082977 27.96006972 18.80615234 30.74829102 C18.80044977 34.32166371 18.80374029 37.89496138 18.80972481 41.46833134 C18.81420652 44.87863316 18.8110692 48.28891479 18.80859375 51.69921875 C18.81061798 52.98361343 18.81264221 54.26800812 18.81472778 55.59132385 C18.81157562 56.77943161 18.80842346 57.96753937 18.80517578 59.19165039 C18.80438019 60.23881729 18.80358459 61.28598419 18.80276489 62.36488342 C18.67578125 64.9765625 18.67578125 64.9765625 17.67578125 67.9765625 C18.33578125 67.9765625 18.99578125 67.9765625 19.67578125 67.9765625 C19.90136719 67.43128906 20.12695312 66.88601563 20.359375 66.32421875 C22.06721463 63.27848694 24.34634354 60.92337592 26.73828125 58.4140625 C31.14023647 53.71116836 35.29890577 48.88297719 39.3125 43.83984375 C40.48232422 42.42251953 40.48232422 42.42251953 41.67578125 40.9765625 C42.17223145 40.2127124 42.66868164 39.4488623 43.18017578 38.66186523 C46.1032921 34.62281609 48.13507158 32.29841898 53.1315918 31.25463867 C57.18468175 31.09098801 61.13080284 31.18749431 65.17578125 31.4140625 C66.5845068 31.45928045 67.99337257 31.50033228 69.40234375 31.53710938 C72.8304329 31.64276966 76.25127854 31.79037903 79.67578125 31.9765625 C77.96552659 35.64091201 75.91580201 37.9111214 72.98828125 40.7265625 C69.37310228 44.26954103 65.94781128 47.8590106 62.6640625 51.70703125 C61.04456256 53.55561566 59.39825694 55.35900766 57.71875 57.15234375 C57.18749512 57.72041748 56.65624023 58.28849121 56.10888672 58.8737793 C55.05536529 59.99697471 53.99856873 61.11711024 52.93798828 62.23364258 C49.76851464 65.61928739 47.14650117 69.04935614 44.67578125 72.9765625 C45.24683594 73.71777344 45.81789063 74.45898438 46.40625 75.22265625 C51.89680439 82.35300708 57.37023817 89.49624777 62.83422852 96.64697266 C67.0945541 102.22084072 71.36937177 107.7833635 75.65234375 113.33984375 C76.88201414 114.94221347 78.09126937 116.56090663 79.26171875 118.20703125 C80.73680644 120.23659706 80.73680644 120.23659706 83.67578125 121.9765625 C56.20824947 126.76175762 56.20824947 126.76175762 48.27783203 121.3359375 C44.48485332 117.34115467 41.85556794 112.75678429 39.57592773 107.76416016 C38.6996397 105.79139738 38.6996397 105.79139738 36.67578125 103.9765625 C35.71862219 102.57310347 34.78362658 101.15443335 33.86328125 99.7265625 C31.33799249 95.90467071 28.78481382 92.34468112 25.67578125 88.9765625 C25.01578125 88.9765625 24.35578125 88.9765625 23.67578125 88.9765625 C23.38703125 89.5953125 23.09828125 90.2140625 22.80078125 90.8515625 C21.67578125 92.9765625 21.67578125 92.9765625 19.67578125 94.9765625 C17.90355036 103.70396366 18.575616 113.10637295 18.67578125 121.9765625 C13.94528963 123.18557253 9.33426193 123.12476752 4.48828125 123.1015625 C3.66908203 123.10542969 2.84988281 123.10929688 2.00585938 123.11328125 C-4.07078667 123.10327854 -4.07078667 123.10327854 -6.32421875 121.9765625 C-6.32421875 122.6365625 -6.32421875 123.2965625 -6.32421875 123.9765625 C-5.66421875 124.3065625 -5.00421875 124.6365625 -4.32421875 124.9765625 C-5.31421875 124.9765625 -6.30421875 124.9765625 -7.32421875 124.9765625 C-8.56369895 119.18774064 -8.47919477 113.47638204 -8.48535156 107.58691406 C-8.49031647 106.44808273 -8.49528137 105.3092514 -8.50039673 104.13591003 C-8.51496936 100.37966301 -8.52180951 96.62345811 -8.52734375 92.8671875 C-8.53309588 90.25738524 -8.53885361 87.647583 -8.5446167 85.03778076 C-8.55417001 80.27136756 -8.56007906 75.50496344 -8.56311345 70.73854184 C-8.56760625 63.72087478 -8.58522186 56.70340133 -8.61411405 49.68579316 C-8.638289 43.60317744 -8.64605516 37.52064208 -8.647789 31.43798065 C-8.65082506 28.84949433 -8.65888538 26.26100902 -8.67197418 23.67255402 C-8.68892815 20.06442808 -8.68718134 16.45678181 -8.68066406 12.84863281 C-8.68987885 11.77121323 -8.69909363 10.69379364 -8.70858765 9.58372498 C-8.70301849 8.60519058 -8.69744934 7.62665619 -8.69171143 6.61846924 C-8.69317799 5.7653075 -8.69464455 4.91214577 -8.69615555 4.03313065 C-8.5734164 3.35446316 -8.45067726 2.67579567 -8.32421875 1.9765625 C-4.91183352 -0.29836099 -3.9637761 -0.21899315 0 0 Z " fill="#010101" transform="translate(739.32421875,523.0234375)"/>
<path d="M0 0 C9.36711101 6.75231812 16.66576455 16.54938042 19 28 C21.22907305 42.51707237 18.76789656 54.62452981 11 67 C2.70031472 77.32254764 -7.02886798 82.59458569 -20 85 C-34.27852125 86.46531377 -47.09803702 84.36123564 -59 76 C-59.57492187 75.5978125 -60.14984375 75.195625 -60.7421875 74.78125 C-69.07349082 68.39247855 -73.78154735 59.1058961 -76 49 C-76.76323509 39.33929399 -77.08705762 28.94867858 -73 20 C-72.6596875 19.24847656 -72.319375 18.49695313 -71.96875 17.72265625 C-65.82732791 5.58504841 -56.57576385 -1.8692902 -43.875 -6.375 C-28.85423814 -10.60844585 -13.25076357 -8.22535243 0 0 Z M-44.23828125 20.25 C-49.56282529 25.53912579 -50.71951398 31.71601473 -51.09765625 39.0390625 C-50.86167485 46.19401842 -48.05880856 52.88821962 -43 58 C-37.80108266 62.08659084 -32.37259367 62.63167557 -25.8984375 62.37890625 C-19.17209125 61.49958605 -14.40730491 58.36021449 -10.2578125 53.04296875 C-5.9954461 46.11993264 -5.14557382 38.84267739 -7 31 C-9.07931057 24.46671167 -13.13823948 19.55228559 -19 16 C-28.57477687 12.61328853 -36.43081377 13.86904426 -44.23828125 20.25 Z " fill="#010101" transform="translate(753,430)"/>
<path d="M0 0 C9.85698811 9.1930459 14.34347837 19.90598001 15.21875 33.36328125 C15.26259237 37.8516439 15.09359799 41.62560804 14 46 C-6.79 46.33 -27.58 46.66 -49 47 C-44.53374047 57.00954516 -44.53374047 57.00954516 -36.66796875 61.16015625 C-28.03054923 63.87910969 -20.48583313 63.1389228 -12 60 C-8.56789671 58.09592879 -5.77946865 55.77946865 -3 53 C0.38133992 56.27226444 3.6137516 59.67398438 6.8125 63.125 C7.60269531 63.97320312 8.39289063 64.82140625 9.20703125 65.6953125 C11 68 11 68 11 71 C-2.96728972 82.37067214 -18.28058863 85.73398692 -36 84 C-49.19860001 81.59780082 -60.69421078 74.83228159 -68.375 63.75 C-70 61 -70 61 -71 58 C-71.2371875 57.40703125 -71.474375 56.8140625 -71.71875 56.203125 C-77.06679883 42.83300292 -75.8157612 28.56186069 -70.2578125 15.44921875 C-64.39744626 4.03788448 -54.83162862 -3.49259829 -42.88671875 -7.75390625 C-28.14605001 -11.72361553 -12.14361917 -9.26378908 0 0 Z M-44.875 18.875 C-46.93830732 21.90927547 -48.07464549 24.46682823 -49 28 C-42.87630854 29.07914003 -36.8960695 29.14917353 -30.6875 29.125 C-29.21506836 29.13080078 -29.21506836 29.13080078 -27.71289062 29.13671875 C-21.41670765 29.12838495 -15.25069818 28.75417246 -9 28 C-10.2198971 22.45501316 -11.77698313 19.03940744 -16 15 C-25.51832163 9.3610834 -37.41914917 10.61487371 -44.875 18.875 Z " fill="#010101" transform="translate(591,431)"/>
<path d="M0 0 C8.66753884 9.14273286 12.84324564 20.57137795 13.34375 33.00390625 C12.99849817 45.26034624 9.15845209 56.34803769 0.92578125 65.54296875 C-9.60352892 75.49456456 -22.66236494 79.73153429 -36.98803711 79.53833008 C-49.85604934 79.0790307 -61.18206508 74.99967045 -70.42578125 65.7265625 C-72.44530889 63.29488636 -74.24378412 60.83863112 -75.96875 58.19140625 C-76.59523438 57.24007812 -76.59523438 57.24007812 -77.234375 56.26953125 C-83.72261576 44.93931978 -83.60258779 32.52611195 -80.96875 20.19140625 C-77.5781958 7.80413398 -69.81925755 -1.57053826 -58.86328125 -8.0546875 C-39.34189256 -18.36288694 -16.05849309 -14.75214742 0 0 Z M-49.015625 14.03515625 C-55.31967613 21.01650213 -57.03848111 26.76608455 -56.96875 36.19140625 C-55.96098346 43.17661158 -53.27987412 48.51813772 -47.96875 53.19140625 C-43.31356253 56.29486456 -38.52334723 57.46045705 -32.96875 57.19140625 C-26.51240533 55.8373673 -21.11928273 53.63619889 -17.1171875 48.24609375 C-13.86204009 42.42225859 -12.13836514 35.83448513 -12.96875 29.19140625 C-15.19443604 21.95507316 -17.84260662 16.44222948 -24.09375 11.94140625 C-32.04363811 7.77960585 -42.18005027 7.877921 -49.015625 14.03515625 Z " fill="#010101" transform="translate(707.96875,567.80859375)"/>
<path d="M0 0 C1.79440548 1.94976526 3.38078763 3.9369403 4.9296875 6.0859375 C5.40148437 6.72789062 5.87328125 7.36984375 6.359375 8.03125 C12.85988809 18.1474331 14.33562618 32.4936875 11.9296875 44.0859375 C7.74871086 57.064062 0.38075357 66.66917009 -11.0703125 74.0859375 C-24.63518382 80.27374866 -40.03299942 81.3883332 -54.140625 76.33984375 C-66.52894218 71.037644 -74.18062912 63.29201139 -79.8828125 51.06640625 C-84.89176071 38.49460531 -83.86197185 25.89541983 -79.0390625 13.41796875 C-73.82547773 2.05728572 -65.05515851 -6.30419823 -53.42578125 -10.9765625 C-34.65284922 -16.97467289 -14.66927154 -13.56215671 0 0 Z M-53.0703125 17.0859375 C-57.64804603 23.90262482 -57.90912873 31.09191774 -57.0703125 39.0859375 C-55.79508171 44.80154024 -53.31055536 49.94983085 -48.31640625 53.2421875 C-41.87376186 56.7724036 -36.12782554 57.8330626 -29.0078125 56.0234375 C-22.61469917 53.84977897 -18.52193555 50.65047156 -15.1953125 44.7734375 C-12.61855112 36.32738632 -12.23035943 28.70253257 -16.296875 20.66015625 C-19.35704758 15.66078339 -22.40414202 11.95599772 -28.0703125 10.0859375 C-37.65018287 7.81032045 -46.23020126 9.7686092 -53.0703125 17.0859375 Z " fill="#010101" transform="translate(605.0703125,567.9140625)"/>
<path d="M0 0 C-0.57484409 4.0095375 -1.83371774 6.71935433 -4 10.125 C-5.69670099 12.80872417 -6.99256926 14.97770778 -8 18 C-11.33642932 17.30782702 -14.12936386 16.04964557 -17.1875 14.5625 C-26.31382786 10.36997921 -33.17578704 9.24922037 -43 12 C-43 14.31 -43 16.62 -43 19 C-36.58497928 22.09002454 -30.18460404 24.23486516 -23.3125 26.0625 C-12.73715597 28.8840886 -3.81159247 31.90257405 1.98828125 41.80078125 C5.12232586 48.6133956 4.27095241 56.02975004 2 63 C-1.89229444 71.36989631 -8.48250134 76.68763941 -17 80 C-33.52694181 85.09628694 -48.99474663 81.29988849 -63.96875 73.9140625 C-67.09849927 71.9378033 -68.88855197 70.01191851 -71 67 C-70.36191406 66.09636719 -69.72382812 65.19273437 -69.06640625 64.26171875 C-68.2315783 63.0704474 -67.39695346 61.8790337 -66.5625 60.6875 C-66.14162109 60.09259766 -65.72074219 59.49769531 -65.28710938 58.88476562 C-63.46155404 56.27057039 -62.01412535 54.04237604 -61 51 C-58.65781663 51.40382472 -57.31880069 51.67020618 -55.640625 53.40625 C-53.74159779 55.25101929 -51.98012308 56.12341969 -49.5625 57.1875 C-48.80066406 57.53167969 -48.03882813 57.87585938 -47.25390625 58.23046875 C-44.76603413 59.21540535 -44.76603413 59.21540535 -41 59 C-41 59.66 -41 60.32 -41 61 C-34.61353776 61.20787761 -29.03422365 61.23003917 -23 59 C-21.58422523 57.81575674 -21.58422523 57.81575674 -21.9375 54.4375 C-21.958125 53.303125 -21.97875 52.16875 -22 51 C-28.02425256 47.93104115 -33.97073694 46.17067422 -40.5 44.5625 C-47.26641482 42.86325228 -53.2749143 41.14102059 -59 37 C-59.66386719 36.57203125 -60.32773437 36.1440625 -61.01171875 35.703125 C-64.83143875 32.94486877 -66.42624266 30.69742947 -67.4375 26.0625 C-67.66042208 24.37931307 -67.85092465 22.6913276 -68 21 C-68.12375 19.865625 -68.2475 18.73125 -68.375 17.5625 C-67.67536052 10.91592498 -65.41782861 3.30452721 -60.7265625 -1.66015625 C-43.46971755 -15.05178028 -16.84664258 -13.63194508 0 0 Z " fill="#020202" transform="translate(893,565)"/>
<path d="M0 0 C0 8.25 0 16.5 0 25 C-3.96 25 -7.92 25 -12 25 C-18.95831581 26.58543905 -22.03226883 28.10852038 -26 34 C-32.05606534 43.73310748 -29.12084169 62.2961934 -29.0625 73.5 C-29.05746689 75.20963408 -29.05290724 76.91926963 -29.04882812 78.62890625 C-29.03798452 82.75264135 -29.02082351 86.87630372 -29 91 C-32.23153977 91.71693337 -35.23049428 92.12784148 -38.5390625 92.1328125 C-39.36664062 92.13410156 -40.19421875 92.13539063 -41.046875 92.13671875 C-41.89765625 92.13285156 -42.7484375 92.12898437 -43.625 92.125 C-44.48351562 92.12886719 -45.34203125 92.13273438 -46.2265625 92.13671875 C-47.4640625 92.13478516 -47.4640625 92.13478516 -48.7265625 92.1328125 C-49.47502441 92.13168457 -50.22348633 92.13055664 -50.99462891 92.12939453 C-53 92 -53 92 -56 91 C-56.02338141 81.92324311 -56.04104446 72.84649692 -56.05181217 63.76971626 C-56.05698544 59.5530095 -56.06397936 55.33632364 -56.07543945 51.11962891 C-56.08646931 47.03471553 -56.09231841 42.94982201 -56.09487724 38.86489487 C-56.09669592 37.32234256 -56.10024499 35.77979109 -56.10573006 34.23724747 C-56.14362624 23.11663426 -55.69352345 12.10117468 -55 1 C-47.08 1 -39.16 1 -31 1 C-30.67 3.64 -30.34 6.28 -30 9 C-27.30751072 9 -26.79607145 8.0236869 -24.875 6.1875 C-17.12651713 -0.52891036 -10.04274803 -0.31383588 0 0 Z " fill="#010101" transform="translate(674,422)"/>
<path d="M0 0 C1.65 0 3.3 0 5 0 C5 0.33 5 0.66 5 1 C3.35 1 1.7 1 0 1 C0 0.67 0 0.34 0 0 Z " fill="#151514" transform="translate(584,478)"/>
<path d="M0 0 C1 4 1 4 1 4 Z " fill="#131312" transform="translate(515,476)"/>
<path d="" fill="#141313" transform="translate(0,0)"/>
<path d="M0 0 C3 1 3 1 3 1 Z " fill="#151314" transform="translate(563,478)"/>
<path d="M0 0 C2 1 2 1 2 1 Z " fill="#2C2C2C" transform="translate(821,647)"/>
<path d="M0 0 C2 1 2 1 2 1 Z " fill="#1F211F" transform="translate(169,643)"/>
<path d="M0 0 C2 1 2 1 2 1 Z " fill="#1A1A19" transform="translate(853,611)"/>
<path d="" fill="#131211" transform="translate(0,0)"/>
<path d="" fill="#1A191A" transform="translate(0,0)"/>
<path d="M0 0 C2 1 2 1 2 1 Z " fill="#161416" transform="translate(596,560)"/>
<path d="M0 0 C2 1 2 1 2 1 Z " fill="#131413" transform="translate(197,513)"/>
<path d="M0 0 C2 1 2 1 2 1 Z " fill="#191818" transform="translate(725,490)"/>
<path d="M0 0 C2 1 2 1 2 1 Z " fill="#161614" transform="translate(198,483)"/>
<path d="M0 0 C2 1 2 1 2 1 Z " fill="#161413" transform="translate(579,478)"/>
<path d="M0 0 C2 1 2 1 2 1 Z " fill="#151414" transform="translate(576,478)"/>
<path d="M0 0 C2 1 2 1 2 1 Z " fill="#141514" transform="translate(569,478)"/>
<path d="M0 0 C2 1 2 1 2 1 Z " fill="#151514" transform="translate(543,478)"/>
<path d="" fill="#161614" transform="translate(0,0)"/>
<path d="" fill="#181919" transform="translate(0,0)"/>
<path d="M0 0 C2 1 2 1 2 1 Z " fill="#161618" transform="translate(616,457)"/>
<path d="M0 0 C2 1 2 1 2 1 Z " fill="#181818" transform="translate(562,444)"/>
<path d="" fill="#1C1B1B" transform="translate(0,0)"/>
<path d="" fill="#151516" transform="translate(0,0)"/>
<path d="" fill="#272828" transform="translate(0,0)"/>
<path d="" fill="#252325" transform="translate(0,0)"/>
<path d="" fill="#232224" transform="translate(0,0)"/>
<path d="" fill="#282726" transform="translate(0,0)"/>
<path d="" fill="#302D2F" transform="translate(0,0)"/>
<path d="" fill="#313032" transform="translate(0,0)"/>
<path d="" fill="#2B2829" transform="translate(0,0)"/>
<path d="" fill="#282829" transform="translate(0,0)"/>
<path d="" fill="#272626" transform="translate(0,0)"/>
<path d="" fill="#292725" transform="translate(0,0)"/>
<path d="" fill="#21201F" transform="translate(0,0)"/>
<path d="" fill="#242621" transform="translate(0,0)"/>
<path d="" fill="#2F2E2F" transform="translate(0,0)"/>
<path d="" fill="#232224" transform="translate(0,0)"/>
<path d="" fill="#212121" transform="translate(0,0)"/>
<path d="" fill="#1E1C1D" transform="translate(0,0)"/>
<path d="" fill="#222323" transform="translate(0,0)"/>
<path d="" fill="#1D1E1C" transform="translate(0,0)"/>
<path d="" fill="#22201F" transform="translate(0,0)"/>
<path d="" fill="#1C1C1C" transform="translate(0,0)"/>
<path d="" fill="#242522" transform="translate(0,0)"/>
<path d="" fill="#1C1C1B" transform="translate(0,0)"/>
<path d="" fill="#1C1B1C" transform="translate(0,0)"/>
<path d="" fill="#1A1A1A" transform="translate(0,0)"/>
<path d="" fill="#1C1A1E" transform="translate(0,0)"/>
<path d="" fill="#191B19" transform="translate(0,0)"/>
<path d="" fill="#1A1A18" transform="translate(0,0)"/>
<path d="" fill="#2A2E2B" transform="translate(0,0)"/>
<path d="" fill="#191A19" transform="translate(0,0)"/>
<path d="" fill="#1B191B" transform="translate(0,0)"/>
<path d="" fill="#151818" transform="translate(0,0)"/>
<path d="" fill="#141517" transform="translate(0,0)"/>
<path d="" fill="#181819" transform="translate(0,0)"/>
<path d="" fill="#181919" transform="translate(0,0)"/>
<path d="" fill="#151514" transform="translate(0,0)"/>
<path d="" fill="#1D1E1C" transform="translate(0,0)"/>
<path d="" fill="#1D1C1B" transform="translate(0,0)"/>
<path d="" fill="#161817" transform="translate(0,0)"/>
<path d="" fill="#191715" transform="translate(0,0)"/>
<path d="" fill="#181717" transform="translate(0,0)"/>
<path d="" fill="#292928" transform="translate(0,0)"/>
<path d="" fill="#151314" transform="translate(0,0)"/>
<path d="" fill="#151614" transform="translate(0,0)"/>
<path d="" fill="#1B1C19" transform="translate(0,0)"/>
<path d="" fill="#262826" transform="translate(0,0)"/>
<path d="" fill="#171614" transform="translate(0,0)"/>
<path d="" fill="#151415" transform="translate(0,0)"/>
<path d="" fill="#161715" transform="translate(0,0)"/>
<path d="" fill="#171617" transform="translate(0,0)"/>
<path d="" fill="#151615" transform="translate(0,0)"/>
<path d="" fill="#1B1A1B" transform="translate(0,0)"/>
<path d="" fill="#161618" transform="translate(0,0)"/>
<path d="" fill="#191819" transform="translate(0,0)"/>
<path d="" fill="#181516" transform="translate(0,0)"/>
<path d="" fill="#131213" transform="translate(0,0)"/>
<path d="" fill="#151619" transform="translate(0,0)"/>
<path d="" fill="#141513" transform="translate(0,0)"/>
<path d="" fill="#212421" transform="translate(0,0)"/>
<path d="" fill="#181916" transform="translate(0,0)"/>
<path d="" fill="#181B18" transform="translate(0,0)"/>
<path d="" fill="#292A2A" transform="translate(0,0)"/>
<path d="" fill="#191918" transform="translate(0,0)"/>
<path d="" fill="#1A1A19" transform="translate(0,0)"/>
<path d="" fill="#161917" transform="translate(0,0)"/>
<path d="" fill="#141417" transform="translate(0,0)"/>
<path d="" fill="#202120" transform="translate(0,0)"/>
<path d="" fill="#1B1B1B" transform="translate(0,0)"/>
<path d="" fill="#1D1C1E" transform="translate(0,0)"/>
<path d="" fill="#3A3939" transform="translate(0,0)"/>
<path d="" fill="#1A1918" transform="translate(0,0)"/>
<path d="" fill="#171818" transform="translate(0,0)"/>
<path d="" fill="#353435" transform="translate(0,0)"/>
<path d="" fill="#262926" transform="translate(0,0)"/>
<path d="" fill="#1A1818" transform="translate(0,0)"/>
<path d="" fill="#161413" transform="translate(0,0)"/>
<path d="" fill="#313032" transform="translate(0,0)"/>
<path d="" fill="#191A1A" transform="translate(0,0)"/>
<path d="" fill="#191818" transform="translate(0,0)"/>
<path d="" fill="#212325" transform="translate(0,0)"/>
<path d="" fill="#181818" transform="translate(0,0)"/>
<path d="" fill="#1D1919" transform="translate(0,0)"/>
<path d="" fill="#101112" transform="translate(0,0)"/>
<path d="" fill="#1B1A19" transform="translate(0,0)"/>
<path d="" fill="#100F11" transform="translate(0,0)"/>
<path d="" fill="#242424" transform="translate(0,0)"/>
<path d="" fill="#1C1819" transform="translate(0,0)"/>
<path d="" fill="#191918" transform="translate(0,0)"/>
<path d="" fill="#1D1A19" transform="translate(0,0)"/>
<path d="" fill="#1B1A19" transform="translate(0,0)"/>
<path d="" fill="#191918" transform="translate(0,0)"/>
<path d="" fill="#1E1E1C" transform="translate(0,0)"/>
<path d="" fill="#1B191A" transform="translate(0,0)"/>
<path d="" fill="#151217" transform="translate(0,0)"/>
<path d="" fill="#1A181B" transform="translate(0,0)"/>
<path d="" fill="#191A16" transform="translate(0,0)"/>
<path d="" fill="#191716" transform="translate(0,0)"/>
<path d="" fill="#171614" transform="translate(0,0)"/>
<path d="" fill="#181716" transform="translate(0,0)"/>
<path d="" fill="#181619" transform="translate(0,0)"/>
<path d="" fill="#1A1917" transform="translate(0,0)"/>
<path d="" fill="#161515" transform="translate(0,0)"/>
<path d="" fill="#141614" transform="translate(0,0)"/>
<path d="" fill="#191719" transform="translate(0,0)"/>
<path d="" fill="#161717" transform="translate(0,0)"/>
<path d="" fill="#161615" transform="translate(0,0)"/>
<path d="" fill="#141412" transform="translate(0,0)"/>
<path d="" fill="#1A1B19" transform="translate(0,0)"/>
<path d="" fill="#141513" transform="translate(0,0)"/>
<path d="" fill="#191816" transform="translate(0,0)"/>
<path d="" fill="#171917" transform="translate(0,0)"/>
<path d="" fill="#161515" transform="translate(0,0)"/>
<path d="" fill="#141414" transform="translate(0,0)"/>
<path d="" fill="#151517" transform="translate(0,0)"/>
<path d="" fill="#151515" transform="translate(0,0)"/>
<path d="" fill="#151414" transform="translate(0,0)"/>
<path d="" fill="#141315" transform="translate(0,0)"/>
<path d="" fill="#141314" transform="translate(0,0)"/>
<path d="" fill="#191718" transform="translate(0,0)"/>
<path d="" fill="#1A191B" transform="translate(0,0)"/>
<path d="" fill="#171615" transform="translate(0,0)"/>
<path d="" fill="#1A1919" transform="translate(0,0)"/>
<path d="" fill="#121211" transform="translate(0,0)"/>
<path d="" fill="#1C1B1D" transform="translate(0,0)"/>
<path d="" fill="#131314" transform="translate(0,0)"/>
<path d="" fill="#161517" transform="translate(0,0)"/>
<path d="" fill="#1C1D1C" transform="translate(0,0)"/>
<path d="" fill="#101210" transform="translate(0,0)"/>
<path d="" fill="#151414" transform="translate(0,0)"/>
<path d="" fill="#191A18" transform="translate(0,0)"/>
<path d="" fill="#1C1A1D" transform="translate(0,0)"/>
<path d="" fill="#131416" transform="translate(0,0)"/>
<path d="" fill="#151414" transform="translate(0,0)"/>
<path d="" fill="#181719" transform="translate(0,0)"/>
<path d="" fill="#171716" transform="translate(0,0)"/>
<path d="" fill="#19191A" transform="translate(0,0)"/>
<path d="" fill="#1A1A19" transform="translate(0,0)"/>
<path d="" fill="#1B1919" transform="translate(0,0)"/>
<path d="" fill="#191919" transform="translate(0,0)"/>
<path d="" fill="#19181A" transform="translate(0,0)"/>
<path d="" fill="#191A1A" transform="translate(0,0)"/>
<path d="" fill="#171717" transform="translate(0,0)"/>
<path d="" fill="#1A1B17" transform="translate(0,0)"/>
<path d="" fill="#111110" transform="translate(0,0)"/>
<path d="" fill="#1E1D1E" transform="translate(0,0)"/>
<path d="" fill="#1B1B1C" transform="translate(0,0)"/>
<path d="" fill="#1D1C1C" transform="translate(0,0)"/>
<path d="" fill="#11110F" transform="translate(0,0)"/>
<path d="" fill="#20201F" transform="translate(0,0)"/>
<path d="" fill="#202124" transform="translate(0,0)"/>
<path d="" fill="#21211F" transform="translate(0,0)"/>
<path d="" fill="#1F211F" transform="translate(0,0)"/>
<path d="" fill="#131413" transform="translate(0,0)"/>
<path d="" fill="#272625" transform="translate(0,0)"/>
<path d="" fill="#131212" transform="translate(0,0)"/>
<path d="" fill="#151614" transform="translate(0,0)"/>
<path d="" fill="#333333" transform="translate(0,0)"/>
<path d="" fill="#1C1A1C" transform="translate(0,0)"/>
<path d="" fill="#212122" transform="translate(0,0)"/>
<path d="" fill="#323234" transform="translate(0,0)"/>
<path d="" fill="#242525" transform="translate(0,0)"/>
<path d="" fill="#242323" transform="translate(0,0)"/>
<path d="" fill="#222020" transform="translate(0,0)"/>
<path d="" fill="#333232" transform="translate(0,0)"/>
</svg>
