<?xml version="1.0" encoding="UTF-8"?>
<svg xmlns="http://www.w3.org/2000/svg" viewBox="0 0 512 512" role="img" aria-label="Partnership appropriation account split and current accounts">
  <style>
    .bg { fill: var(--muted, #F5F7FA); }
    .card { fill: var(--card, #FFFFFF); stroke: var(--border, #E5E7EB); stroke-width: 2; }
    .title { fill: var(--foreground, #111827); font: 600 18px/1.3 system-ui, -apple-system, Segoe UI, Roboto, Ubuntu, Cantarell, Noto Sans, 'Helvetica Neue', Arial; }
    .text { fill: var(--muted-foreground, #4B5563); font: 13px/1.35 system-ui, -apple-system, Segoe UI, Roboto, Ubuntu, Cantarell, Noto Sans, 'Helvetica Neue', Arial; }
    .pill { fill: var(--primary, #2563EB); }
    .pilltxt { fill: #fff; font: 600 12px system-ui, -apple-system, Segoe UI, Roboto, Ubuntu, Cantarell, Noto Sans, 'Helvetica Neue', Arial; }
    .arrow { stroke: var(--foreground, #111827); stroke-width: 2.5; fill: none; marker-end: url(#arrow); }
  </style>
  <defs>
    <marker id="arrow" markerWidth="8" markerHeight="8" refX="6" refY="4" orient="auto-start-reverse">
      <path d="M0,0 L8,4 L0,8 z" fill="var(--foreground, #111827)"/>
    </marker>
  </defs>
  <rect class="bg" width="512" height="512" rx="24"/>

  <!-- Appropriation card -->
  <rect class="card" x="48" y="36" width="416" height="120" rx="16"/>
  <text class="title" x="256" y="72" text-anchor="middle">Appropriation Account</text>
  <text class="text" x="256" y="98" text-anchor="middle">Net profit → salaries & interest → share of profit</text>

  <path class="arrow" d="M256 156 C 200 190, 180 200, 140 220"/>
  <path class="arrow" d="M256 156 C 312 190, 332 200, 372 220"/>

  <!-- Ali current account -->
  <rect class="card" x="48" y="220" width="176" height="220" rx="14"/>
  <rect class="pill" x="60" y="232" width="64" height="22" rx="11"/>
  <text class="pilltxt" x="92" y="248" text-anchor="middle">Ali</text>
  <text class="text" x="60" y="270">+ Salary</text>
  <text class="text" x="60" y="290">+ Interest on Capital</text>
  <text class="text" x="60" y="310">+ Share of Profit</text>
  <text class="text" x="60" y="330">- Drawings</text>
  <text class="text" x="60" y="350">- Interest on Drawings</text>
  <text class="text" x="60" y="375">= Closing balance</text>

  <!-- Beharry current account -->
  <rect class="card" x="288" y="220" width="176" height="220" rx="14"/>
  <rect class="pill" x="300" y="232" width="88" height="22" rx="11"/>
  <text class="pilltxt" x="344" y="248" text-anchor="middle">Beharry</text>
  <text class="text" x="300" y="270">+ Salary</text>
  <text class="text" x="300" y="290">+ Interest on Capital</text>
  <text class="text" x="300" y="310">+ Share of Profit</text>
  <text class="text" x="300" y="330">- Drawings</text>
  <text class="text" x="300" y="350">- Interest on Drawings</text>
  <text class="text" x="300" y="375">= Closing balance</text>
</svg>
